<svg width="81" height="52" viewBox="0 0 81 52" fill="none" xmlns="http://www.w3.org/2000/svg">
<g clip-path="url(#clip0_1_298)">
<g clip-path="url(#clip1_1_298)">
<g clip-path="url(#clip2_1_298)">
<path d="M45.031 23.507V21.778C45.0298 21.7199 45.0403 21.6622 45.062 21.6083C45.0837 21.5544 45.1161 21.5055 45.1572 21.4645C45.1983 21.4235 45.2473 21.3912 45.3013 21.3696C45.3552 21.3481 45.4129 21.3376 45.471 21.339H53.224C53.474 21.339 53.672 21.52 53.672 21.777V23.262C53.669 23.507 53.459 23.833 53.088 24.35L49.068 30.083C50.56 30.048 52.138 30.271 53.493 31.033C53.799 31.206 53.882 31.457 53.905 31.707V33.556C53.905 33.811 53.625 34.106 53.335 33.953C50.947 32.7 47.78 32.563 45.142 33.968C44.872 34.112 44.59 33.823 44.59 33.568V31.808C44.59 31.528 44.595 31.048 44.878 30.62L49.53 23.944H45.48C45.4215 23.9462 45.3631 23.9364 45.3085 23.9154C45.2538 23.8944 45.204 23.8624 45.162 23.8216C45.12 23.7807 45.0868 23.7318 45.0643 23.6777C45.0417 23.6236 45.0304 23.5656 45.031 23.507ZM16.751 34.317H14.392C14.2855 34.3124 14.1843 34.2695 14.1069 34.1962C14.0295 34.1229 13.9813 34.0241 13.971 33.918L13.973 21.808C13.973 21.567 14.175 21.372 14.427 21.372L16.624 21.371C16.854 21.384 17.038 21.558 17.053 21.779V23.36H17.096C17.667 21.83 18.748 21.116 20.2 21.116C21.676 21.116 22.598 21.831 23.26 23.36C23.833 21.83 25.131 21.116 26.52 21.116C27.511 21.116 28.589 21.525 29.25 22.442C30 23.459 29.845 24.939 29.845 26.236L29.844 33.88C29.8427 33.9386 29.8299 33.9963 29.8063 34.0499C29.7826 34.1035 29.7487 34.152 29.7063 34.1925C29.664 34.233 29.6141 34.2647 29.5595 34.2859C29.5048 34.3071 29.4466 34.3173 29.388 34.316H27.033C26.9201 34.3119 26.8132 34.2646 26.7342 34.1838C26.6553 34.103 26.6105 33.9949 26.609 33.882V27.461C26.609 26.951 26.652 25.679 26.541 25.192C26.364 24.377 25.836 24.148 25.153 24.148C24.583 24.148 23.988 24.53 23.745 25.142C23.503 25.754 23.525 26.772 23.525 27.461V33.88C23.5238 33.9386 23.5111 33.9964 23.4875 34.0501C23.464 34.1038 23.43 34.1523 23.3876 34.1928C23.3453 34.2333 23.2953 34.265 23.2406 34.2862C23.1859 34.3073 23.1276 34.3175 23.069 34.316H20.714C20.6012 34.3117 20.4944 34.2642 20.4155 34.1835C20.3366 34.1028 20.2917 33.9949 20.29 33.882L20.287 27.46C20.287 26.109 20.507 24.122 18.835 24.122C17.138 24.122 17.205 26.061 17.205 27.46L17.204 33.88C17.204 34.123 17.004 34.317 16.751 34.317ZM60.348 21.117C63.846 21.117 65.743 24.123 65.743 27.945C65.743 31.638 63.647 34.572 60.348 34.572C56.912 34.572 55.038 31.56 55.038 27.816C55.038 24.047 56.933 21.116 60.348 21.116V21.117ZM60.37 23.587C58.628 23.587 58.518 25.959 58.518 27.433C58.518 28.912 58.496 32.07 60.348 32.07C62.171 32.07 62.258 29.523 62.258 27.972C62.258 26.952 62.215 25.729 61.906 24.76C61.643 23.918 61.114 23.587 60.37 23.587ZM70.281 34.317H67.93C67.8173 34.3127 67.7106 34.2652 67.6319 34.1844C67.5532 34.1037 67.5085 33.9958 67.507 33.883L67.502 21.768C67.5149 21.6574 67.5686 21.5555 67.6525 21.4823C67.7365 21.4091 67.8447 21.3698 67.956 21.372L70.146 21.371C70.354 21.381 70.523 21.523 70.566 21.711V23.562H70.61C71.27 21.907 72.191 21.116 73.821 21.116C74.879 21.116 75.916 21.499 76.577 22.545C77.19 23.51 77.19 25.142 77.19 26.314V33.934C77.1745 34.0413 77.1205 34.1393 77.0381 34.2098C76.9557 34.2803 76.8504 34.3184 76.742 34.317H74.374C74.2704 34.3115 74.172 34.2703 74.0953 34.2005C74.0186 34.1307 73.9683 34.0366 73.953 33.934V27.359C73.953 26.036 74.11 24.097 72.477 24.097C71.904 24.097 71.381 24.48 71.115 25.067C70.785 25.807 70.742 26.543 70.742 27.359V33.88C70.7378 33.9986 70.6873 34.1108 70.6013 34.1925C70.5153 34.2742 70.3996 34.3189 70.281 34.317ZM12.13 32.095C11.7 31.497 11.242 31.015 11.242 29.909V26.233C11.242 24.678 11.352 23.248 10.204 22.176C9.29701 21.306 7.79701 21 6.64801 21C4.40401 21 1.90001 21.838 1.37401 24.612C1.31801 24.909 1.53301 25.062 1.72701 25.106L4.01301 25.354C4.22501 25.343 4.38101 25.131 4.42301 24.919C4.61901 23.962 5.42001 23.502 6.31901 23.502C6.80301 23.502 7.35501 23.682 7.64301 24.115C7.97301 24.599 7.92901 25.265 7.92901 25.827V26.131C6.56001 26.285 4.77301 26.386 3.49501 26.949C2.01601 27.589 0.980011 28.889 0.980011 30.806C0.980011 33.259 2.52401 34.485 4.50801 34.485C6.18801 34.485 7.10301 34.088 8.39801 32.769C8.82801 33.389 8.96801 33.689 9.75001 34.342C9.92601 34.435 10.151 34.428 10.308 34.287L10.313 34.292C10.9098 33.7629 11.5125 33.2405 12.121 32.725C12.313 32.565 12.28 32.308 12.13 32.095ZM7.48801 31.035C7.11301 31.695 6.51801 32.105 5.85701 32.105C4.95101 32.105 4.42201 31.415 4.42201 30.395C4.42201 28.388 6.22501 28.023 7.93101 28.023V28.533C7.93101 29.45 7.95201 30.217 7.48801 31.035ZM43.053 32.095C42.62 31.497 42.162 31.015 42.162 29.909V26.233C42.162 24.678 42.272 23.248 41.123 22.176C40.221 21.306 38.719 21 37.573 21C35.329 21 32.823 21.838 32.298 24.612C32.242 24.909 32.458 25.062 32.65 25.106L34.935 25.354C35.151 25.343 35.306 25.131 35.346 24.919C35.544 23.962 36.341 23.502 37.242 23.502C37.727 23.502 38.28 23.682 38.565 24.115C38.895 24.599 38.851 25.265 38.851 25.827V26.131C37.484 26.285 35.697 26.386 34.419 26.949C32.939 27.589 31.902 28.889 31.902 30.806C31.902 33.259 33.445 34.485 35.432 34.485C37.108 34.485 38.027 34.088 39.322 32.769C39.75 33.389 39.891 33.689 40.674 34.342C40.851 34.435 41.074 34.428 41.229 34.287L41.235 34.292C41.707 33.872 42.565 33.128 43.045 32.725C43.238 32.565 43.205 32.308 43.053 32.095ZM38.41 31.035C38.037 31.695 37.44 32.105 36.778 32.105C35.873 32.105 35.345 31.415 35.345 30.395C35.345 28.388 37.146 28.023 38.852 28.023V28.533C38.852 29.45 38.874 30.217 38.41 31.035Z" fill="black"/>
<path d="M48.18 39.023C43.681 42.235 37.413 43.969 31.883 43.969C24.137 43.969 17.233 41.166 11.913 36.362C11.421 35.917 11.739 35.396 12.351 35.748C18.137 39.095 25.073 41.053 32.35 41.053C37.257 41.053 42.47 40.075 47.423 37.968C48.506 37.506 48.954 38.47 48.18 39.023Z" fill="#F9A51B"/>
<path d="M50.104 36.8551C49.534 36.1281 46.357 36.5111 44.929 36.6801C44.499 36.7321 44.429 36.3541 44.821 36.0811C47.356 34.3091 51.511 34.8251 51.991 35.4101C52.477 36.0121 51.863 40.1801 49.488 42.1701C49.122 42.4791 48.778 42.3111 48.94 41.9081C49.473 40.5711 50.67 37.5791 50.104 36.8551Z" fill="#F9A51B"/>
<path d="M79.872 32.339C80.138 32.339 80.364 32.432 80.55 32.619C80.736 32.804 80.83 33.029 80.83 33.294C80.832 33.42 80.8082 33.5451 80.7601 33.6615C80.7119 33.7779 80.6404 33.8833 80.55 33.971C80.4622 34.0617 80.3568 34.1333 80.2401 34.1815C80.1235 34.2297 79.9982 34.2533 79.872 34.251C79.746 34.2533 79.6209 34.2296 79.5044 34.1814C79.3879 34.1332 79.2826 34.0616 79.195 33.971C79.1049 33.8831 79.0337 33.7777 78.9857 33.6613C78.9378 33.5449 78.914 33.4199 78.916 33.294C78.916 33.03 79.009 32.804 79.196 32.619C79.2835 32.5286 79.3887 32.4571 79.505 32.4089C79.6212 32.3608 79.7462 32.337 79.872 32.339ZM80.98 33.29C80.98 32.985 80.871 32.725 80.655 32.51C80.5531 32.4057 80.4311 32.3233 80.2963 32.2678C80.1615 32.2123 80.0168 32.1848 79.871 32.187C79.566 32.187 79.307 32.295 79.091 32.51C78.9864 32.6109 78.9037 32.7322 78.8478 32.8664C78.7919 33.0005 78.764 33.1447 78.766 33.29C78.766 33.597 78.873 33.86 79.088 34.075C79.303 34.292 79.564 34.401 79.87 34.401C80.177 34.401 80.439 34.292 80.655 34.075C80.7599 33.9733 80.8429 33.8512 80.8988 33.7162C80.9547 33.5811 80.9823 33.4361 80.98 33.29ZM80.165 33.051C80.1676 33.0917 80.1566 33.1321 80.1338 33.1659C80.111 33.1998 80.0777 33.2251 80.039 33.238C79.9717 33.2588 79.9013 33.2676 79.831 33.264H79.635V32.831H79.82C79.941 32.831 80.028 32.845 80.084 32.875C80.138 32.905 80.165 32.963 80.165 33.051ZM79.426 32.681V33.891H79.636V33.415H79.806C79.922 33.415 80.003 33.428 80.048 33.453C80.127 33.499 80.165 33.591 80.165 33.731V33.827L80.17 33.866L80.172 33.88L80.176 33.892H80.375L80.367 33.876C80.3594 33.8563 80.3556 33.8352 80.356 33.814C80.353 33.782 80.353 33.752 80.353 33.724V33.635C80.3501 33.5672 80.3271 33.5018 80.287 33.447C80.2625 33.4139 80.2314 33.3862 80.1955 33.3659C80.1597 33.3456 80.12 33.333 80.079 33.329C80.1407 33.3215 80.2003 33.3014 80.254 33.27C80.334 33.218 80.374 33.139 80.374 33.03C80.374 32.879 80.311 32.777 80.185 32.724C80.0775 32.6899 79.9647 32.6754 79.852 32.681H79.426Z" fill="black"/>
</g>
</g>
</g>
<defs>
<clipPath id="clip0_1_298">
<rect width="80" height="52" fill="white" transform="translate(0.980011)"/>
</clipPath>
<clipPath id="clip1_1_298">
<rect width="80" height="52" fill="white" transform="translate(0.980011)"/>
</clipPath>
<clipPath id="clip2_1_298">
<rect width="80" height="52" fill="white" transform="translate(0.980011)"/>
</clipPath>
</defs>
</svg>
