<svg width="376" height="271" viewBox="0 0 376 271" fill="none" xmlns="http://www.w3.org/2000/svg">
<g filter="url(#filter0_d_1_49)">
<rect x="8" y="4" width="360" height="255" rx="12" fill="white"/>
<rect x="8.5" y="4.5" width="359" height="254" rx="11.5" stroke="#DFE2E7"/>
<g clip-path="url(#clip0_1_49)">
<path d="M28.376 43V31.832H35.352V33.432H30.184V36.536H34.776V38.136H30.184V43H28.376ZM40.1839 43.192C39.5865 43.192 39.0532 43.0907 38.5839 42.888C38.1145 42.6853 37.7145 42.3973 37.3839 42.024C37.0532 41.64 36.7972 41.1813 36.6159 40.648C36.4452 40.104 36.3599 39.5013 36.3599 38.84C36.3599 38.1787 36.4452 37.5813 36.6159 37.048C36.7972 36.504 37.0532 36.0453 37.3839 35.672C37.7145 35.288 38.1145 34.9947 38.5839 34.792C39.0532 34.5893 39.5865 34.488 40.1839 34.488C40.7919 34.488 41.3252 34.5947 41.7839 34.808C42.2532 35.0213 42.6425 35.32 42.9519 35.704C43.2612 36.0773 43.4905 36.5147 43.6399 37.016C43.7999 37.5173 43.8799 38.056 43.8799 38.632V39.288H38.1679V39.56C38.1679 40.2 38.3545 40.728 38.7279 41.144C39.1119 41.5493 39.6559 41.752 40.3599 41.752C40.8719 41.752 41.3039 41.64 41.6559 41.416C42.0079 41.192 42.3065 40.888 42.5519 40.504L43.5759 41.512C43.2665 42.024 42.8185 42.4347 42.2319 42.744C41.6452 43.0427 40.9625 43.192 40.1839 43.192ZM40.1839 35.848C39.8852 35.848 39.6079 35.9013 39.3519 36.008C39.1065 36.1147 38.8932 36.264 38.7119 36.456C38.5412 36.648 38.4079 36.8773 38.3119 37.144C38.2159 37.4107 38.1679 37.704 38.1679 38.024V38.136H42.0399V37.976C42.0399 37.336 41.8745 36.824 41.5439 36.44C41.2132 36.0453 40.7599 35.848 40.1839 35.848ZM45.8105 31.16H47.5545V36.056H47.6345C47.8158 35.5547 48.1092 35.1707 48.5145 34.904C48.9305 34.6267 49.4158 34.488 49.9705 34.488C51.0265 34.488 51.8425 34.872 52.4185 35.64C52.9945 36.3973 53.2825 37.464 53.2825 38.84C53.2825 40.216 52.9945 41.288 52.4185 42.056C51.8425 42.8133 51.0265 43.192 49.9705 43.192C49.4158 43.192 48.9305 43.0533 48.5145 42.776C48.1092 42.4987 47.8158 42.1147 47.6345 41.624H47.5545V43H45.8105V31.16ZM49.4425 41.688C50.0505 41.688 50.5358 41.496 50.8985 41.112C51.2612 40.7173 51.4425 40.2 51.4425 39.56V38.12C51.4425 37.48 51.2612 36.968 50.8985 36.584C50.5358 36.1893 50.0505 35.992 49.4425 35.992C48.9092 35.992 48.4612 36.1253 48.0985 36.392C47.7358 36.648 47.5545 36.9893 47.5545 37.416V40.264C47.5545 40.6907 47.7358 41.0373 48.0985 41.304C48.4612 41.56 48.9092 41.688 49.4425 41.688ZM55.2793 43V34.68H57.0233V36.28H57.1033C57.2206 35.8533 57.4659 35.48 57.8393 35.16C58.2126 34.84 58.7299 34.68 59.3913 34.68H59.8553V36.36H59.1673C58.4739 36.36 57.9406 36.472 57.5673 36.696C57.2046 36.92 57.0233 37.2507 57.0233 37.688V43H55.2793ZM66.4443 41.624H66.3803C66.3056 41.8267 66.2043 42.024 66.0763 42.216C65.9589 42.408 65.8043 42.5787 65.6123 42.728C65.4309 42.8667 65.2069 42.9787 64.9403 43.064C64.6843 43.1493 64.3856 43.192 64.0443 43.192C63.1803 43.192 62.5083 42.9147 62.0283 42.36C61.5589 41.8053 61.3243 41.0107 61.3243 39.976V34.68H63.0683V39.752C63.0683 41.0427 63.6016 41.688 64.6683 41.688C64.8923 41.688 65.1109 41.6613 65.3243 41.608C65.5376 41.544 65.7243 41.4533 65.8843 41.336C66.0549 41.2187 66.1883 41.0693 66.2843 40.888C66.3909 40.7067 66.4443 40.4933 66.4443 40.248V34.68H68.1883V43H66.4443V41.624ZM76.7815 43C76.3228 43 75.9708 42.872 75.7255 42.616C75.4802 42.3493 75.3308 42.0133 75.2775 41.608H75.1975C75.0375 42.1307 74.7442 42.5253 74.3175 42.792C73.8908 43.0587 73.3735 43.192 72.7655 43.192C71.9015 43.192 71.2348 42.968 70.7655 42.52C70.3068 42.072 70.0775 41.4693 70.0775 40.712C70.0775 39.88 70.3762 39.256 70.9735 38.84C71.5815 38.424 72.4668 38.216 73.6295 38.216H75.1335V37.512C75.1335 37 74.9948 36.6053 74.7175 36.328C74.4402 36.0507 74.0082 35.912 73.4215 35.912C72.9308 35.912 72.5308 36.0187 72.2215 36.232C71.9122 36.4453 71.6508 36.7173 71.4375 37.048L70.3975 36.104C70.6748 35.6347 71.0642 35.2507 71.5655 34.952C72.0668 34.6427 72.7228 34.488 73.5335 34.488C74.6108 34.488 75.4375 34.7387 76.0135 35.24C76.5895 35.7413 76.8775 36.4613 76.8775 37.4V41.576H77.7575V43H76.7815ZM73.2615 41.864C73.8055 41.864 74.2535 41.7467 74.6055 41.512C74.9575 41.2667 75.1335 40.9413 75.1335 40.536V39.336H73.6615C72.4562 39.336 71.8535 39.7093 71.8535 40.456V40.744C71.8535 41.1173 71.9762 41.4 72.2215 41.592C72.4775 41.7733 72.8242 41.864 73.2615 41.864ZM79.4668 43V34.68H81.2108V36.28H81.2908C81.4081 35.8533 81.6534 35.48 82.0268 35.16C82.4001 34.84 82.9174 34.68 83.5788 34.68H84.0428V36.36H83.3548C82.6614 36.36 82.1281 36.472 81.7548 36.696C81.3921 36.92 81.2108 37.2507 81.2108 37.688V43H79.4668ZM90.8364 34.68H92.5164L89.0124 44.648C88.9164 44.9253 88.8044 45.16 88.6764 45.352C88.559 45.5547 88.415 45.7147 88.2444 45.832C88.0844 45.96 87.887 46.0507 87.6524 46.104C87.4177 46.168 87.1404 46.2 86.8204 46.2H85.8124V44.776H87.2204L87.7004 43.368L84.6764 34.68H86.4204L88.0844 39.576L88.5644 41.384H88.6444L89.1724 39.576L90.8364 34.68ZM105.14 43H97.5564V41.272L101.124 38.088C101.69 37.576 102.122 37.0907 102.42 36.632C102.73 36.1627 102.884 35.672 102.884 35.16V34.952C102.884 34.408 102.719 33.9813 102.388 33.672C102.068 33.3627 101.631 33.208 101.076 33.208C100.767 33.208 100.495 33.256 100.26 33.352C100.036 33.4373 99.839 33.56 99.6684 33.72C99.4977 33.88 99.3537 34.0667 99.2364 34.28C99.1297 34.4933 99.0444 34.7227 98.9804 34.968L97.3964 34.36C97.5137 34.008 97.6737 33.672 97.8764 33.352C98.079 33.0213 98.335 32.728 98.6444 32.472C98.9537 32.216 99.3164 32.0133 99.7324 31.864C100.159 31.7147 100.655 31.64 101.22 31.64C101.786 31.64 102.292 31.7253 102.74 31.896C103.188 32.056 103.562 32.2853 103.86 32.584C104.17 32.872 104.404 33.2187 104.564 33.624C104.724 34.0293 104.804 34.472 104.804 34.952C104.804 35.4 104.735 35.816 104.596 36.2C104.458 36.584 104.266 36.9467 104.02 37.288C103.775 37.6293 103.487 37.9547 103.156 38.264C102.836 38.5733 102.495 38.888 102.132 39.208L99.5084 41.464H105.14V43ZM110.878 43.192C110.185 43.192 109.582 43.064 109.07 42.808C108.558 42.5413 108.137 42.1627 107.806 41.672C107.475 41.1813 107.23 40.5787 107.07 39.864C106.91 39.1493 106.83 38.3333 106.83 37.416C106.83 36.5093 106.91 35.6987 107.07 34.984C107.23 34.2587 107.475 33.6507 107.806 33.16C108.137 32.6693 108.558 32.296 109.07 32.04C109.582 31.7733 110.185 31.64 110.878 31.64C112.265 31.64 113.283 32.1467 113.934 33.16C114.595 34.1733 114.926 35.592 114.926 37.416C114.926 39.24 114.595 40.6587 113.934 41.672C113.283 42.6853 112.265 43.192 110.878 43.192ZM110.878 41.656C111.262 41.656 111.587 41.5813 111.854 41.432C112.131 41.272 112.355 41.048 112.526 40.76C112.697 40.472 112.819 40.1307 112.894 39.736C112.969 39.3307 113.006 38.8827 113.006 38.392V36.44C113.006 35.9493 112.969 35.5067 112.894 35.112C112.819 34.7067 112.697 34.36 112.526 34.072C112.355 33.784 112.131 33.5653 111.854 33.416C111.587 33.256 111.262 33.176 110.878 33.176C110.494 33.176 110.163 33.256 109.886 33.416C109.619 33.5653 109.401 33.784 109.23 34.072C109.059 34.36 108.937 34.7067 108.862 35.112C108.787 35.5067 108.75 35.9493 108.75 36.44V38.392C108.75 38.8827 108.787 39.3307 108.862 39.736C108.937 40.1307 109.059 40.472 109.23 40.76C109.401 41.048 109.619 41.272 109.886 41.432C110.163 41.5813 110.494 41.656 110.878 41.656ZM124.328 43H116.744V41.272L120.312 38.088C120.877 37.576 121.309 37.0907 121.608 36.632C121.917 36.1627 122.072 35.672 122.072 35.16V34.952C122.072 34.408 121.907 33.9813 121.576 33.672C121.256 33.3627 120.819 33.208 120.264 33.208C119.955 33.208 119.683 33.256 119.448 33.352C119.224 33.4373 119.027 33.56 118.856 33.72C118.685 33.88 118.541 34.0667 118.424 34.28C118.317 34.4933 118.232 34.7227 118.168 34.968L116.584 34.36C116.701 34.008 116.861 33.672 117.064 33.352C117.267 33.0213 117.523 32.728 117.832 32.472C118.141 32.216 118.504 32.0133 118.92 31.864C119.347 31.7147 119.843 31.64 120.408 31.64C120.973 31.64 121.48 31.7253 121.928 31.896C122.376 32.056 122.749 32.2853 123.048 32.584C123.357 32.872 123.592 33.2187 123.752 33.624C123.912 34.0293 123.992 34.472 123.992 34.952C123.992 35.4 123.923 35.816 123.784 36.2C123.645 36.584 123.453 36.9467 123.208 37.288C122.963 37.6293 122.675 37.9547 122.344 38.264C122.024 38.5733 121.683 38.888 121.32 39.208L118.696 41.464H124.328V43ZM133.394 33.4H128.434L128.146 37.352H128.258C128.386 37.128 128.519 36.9307 128.658 36.76C128.796 36.5787 128.956 36.424 129.138 36.296C129.319 36.168 129.527 36.072 129.762 36.008C129.996 35.9333 130.274 35.896 130.594 35.896C131.074 35.896 131.516 35.976 131.922 36.136C132.338 36.296 132.695 36.5253 132.994 36.824C133.303 37.1227 133.543 37.4907 133.714 37.928C133.884 38.3547 133.97 38.84 133.97 39.384C133.97 39.9387 133.879 40.4507 133.698 40.92C133.527 41.3893 133.271 41.7947 132.93 42.136C132.588 42.4667 132.167 42.728 131.666 42.92C131.175 43.1013 130.615 43.192 129.986 43.192C129.484 43.192 129.042 43.1333 128.658 43.016C128.274 42.9093 127.932 42.7653 127.634 42.584C127.346 42.392 127.09 42.1787 126.866 41.944C126.652 41.6987 126.46 41.448 126.29 41.192L127.602 40.152C127.74 40.376 127.884 40.5787 128.034 40.76C128.183 40.9413 128.354 41.1013 128.546 41.24C128.738 41.3787 128.951 41.4853 129.186 41.56C129.431 41.6347 129.708 41.672 130.018 41.672C130.679 41.672 131.186 41.4907 131.538 41.128C131.9 40.7653 132.082 40.264 132.082 39.624V39.432C132.082 38.792 131.9 38.2907 131.538 37.928C131.186 37.5653 130.679 37.384 130.018 37.384C129.538 37.384 129.154 37.4747 128.866 37.656C128.578 37.8373 128.332 38.04 128.13 38.264L126.642 38.056L127.058 31.832H133.394V33.4Z" fill="#1A1E23"/>
<path d="M153.16 35.5L156.91 39.25L160.66 35.5H153.16Z" fill="#0073E6"/>
</g>
<path d="M298.41 41.59L293.83 37L298.41 32.41L297 31L291 37L297 43L298.41 41.59Z" fill="#0073E6"/>
<path d="M331.59 41.59L336.17 37L331.59 32.41L333 31L339 37L333 43L331.59 41.59Z" fill="#0073E6"/>
<path d="M34.6331 85.144C33.8971 85.144 33.2731 85.02 32.7611 84.772C32.2491 84.516 31.8131 84.188 31.4531 83.788L32.6531 82.576C33.2211 83.216 33.9211 83.536 34.7531 83.536C35.2011 83.536 35.5331 83.444 35.7491 83.26C35.9651 83.076 36.0731 82.832 36.0731 82.528C36.0731 82.296 36.0091 82.104 35.8811 81.952C35.7531 81.792 35.4931 81.684 35.1011 81.628L34.2731 81.52C33.3851 81.408 32.7331 81.14 32.3171 80.716C31.9091 80.292 31.7051 79.728 31.7051 79.024C31.7051 78.648 31.7771 78.304 31.9211 77.992C32.0651 77.68 32.2691 77.412 32.5331 77.188C32.8051 76.964 33.1331 76.792 33.5171 76.672C33.9091 76.544 34.3531 76.48 34.8491 76.48C35.4811 76.48 36.0371 76.58 36.5171 76.78C36.9971 76.98 37.4091 77.272 37.7531 77.656L36.5411 78.88C36.3411 78.648 36.0971 78.46 35.8091 78.316C35.5291 78.164 35.1731 78.088 34.7411 78.088C34.3331 78.088 34.0291 78.16 33.8291 78.304C33.6291 78.448 33.5291 78.648 33.5291 78.904C33.5291 79.192 33.6051 79.4 33.7571 79.528C33.9171 79.656 34.1731 79.748 34.5251 79.804L35.3531 79.936C36.2171 80.072 36.8571 80.34 37.2731 80.74C37.6891 81.132 37.8971 81.692 37.8971 82.42C37.8971 82.82 37.8251 83.188 37.6811 83.524C37.5371 83.86 37.3251 84.148 37.0451 84.388C36.7731 84.628 36.4331 84.816 36.0251 84.952C35.6171 85.08 35.1531 85.144 34.6331 85.144Z" fill="#576375"/>
<path d="M88.1222 79.504H88.0862L87.4742 80.728L85.8422 83.692L84.2462 80.74L83.6102 79.42H83.5742V85H81.8582V76.624H83.7902L85.8422 80.548H85.8662L87.8942 76.624H89.8382V85H88.1222V79.504Z" fill="#576375"/>
<path d="M137.927 78.244V85H136.103V78.244H133.835V76.624H140.195V78.244H137.927Z" fill="#576375"/>
<path d="M184.56 85L182.664 76.624H184.464L185.256 80.644L185.7 82.972H185.736L186.264 80.644L187.188 76.624H189.18L190.116 80.644L190.632 82.972H190.668L191.112 80.644L191.916 76.624H193.644L191.7 85H189.624L188.568 80.464L188.16 78.628H188.124L187.704 80.464L186.648 85H184.56Z" fill="#576375"/>
<path d="M240.207 78.244V85H238.383V78.244H236.115V76.624H242.475V78.244H240.207Z" fill="#576375"/>
<path d="M287.855 85V76.624H293.411V78.244H289.679V79.96H292.859V81.568H289.679V85H287.855Z" fill="#576375"/>
<path d="M341.483 85.144C340.747 85.144 340.123 85.02 339.611 84.772C339.099 84.516 338.663 84.188 338.303 83.788L339.503 82.576C340.071 83.216 340.771 83.536 341.603 83.536C342.051 83.536 342.383 83.444 342.599 83.26C342.815 83.076 342.923 82.832 342.923 82.528C342.923 82.296 342.859 82.104 342.731 81.952C342.603 81.792 342.343 81.684 341.951 81.628L341.123 81.52C340.235 81.408 339.583 81.14 339.167 80.716C338.759 80.292 338.555 79.728 338.555 79.024C338.555 78.648 338.627 78.304 338.771 77.992C338.915 77.68 339.119 77.412 339.383 77.188C339.655 76.964 339.983 76.792 340.367 76.672C340.759 76.544 341.203 76.48 341.699 76.48C342.331 76.48 342.887 76.58 343.367 76.78C343.847 76.98 344.259 77.272 344.603 77.656L343.391 78.88C343.191 78.648 342.947 78.46 342.659 78.316C342.379 78.164 342.023 78.088 341.591 78.088C341.183 78.088 340.879 78.16 340.679 78.304C340.479 78.448 340.379 78.648 340.379 78.904C340.379 79.192 340.455 79.4 340.607 79.528C340.767 79.656 341.023 79.748 341.375 79.804L342.203 79.936C343.067 80.072 343.707 80.34 344.123 80.74C344.539 81.132 344.747 81.692 344.747 82.42C344.747 82.82 344.675 83.188 344.531 83.524C344.387 83.86 344.175 84.148 343.895 84.388C343.623 84.628 343.283 84.816 342.875 84.952C342.467 85.08 342.003 85.144 341.483 85.144Z" fill="#576375"/>
<path d="M339.036 111V109.872H341.388V103.608H341.292L339.348 105.684L338.52 104.94L340.656 102.624H342.72V109.872H344.76V111H339.036Z" fill="#1A1E23"/>
<path d="M37.6218 137H31.9338V135.704L34.6098 133.316C35.0338 132.932 35.3578 132.568 35.5818 132.224C35.8138 131.872 35.9298 131.504 35.9298 131.12V130.964C35.9298 130.556 35.8058 130.236 35.5578 130.004C35.3178 129.772 34.9898 129.656 34.5738 129.656C34.3418 129.656 34.1378 129.692 33.9618 129.764C33.7938 129.828 33.6458 129.92 33.5178 130.04C33.3898 130.16 33.2818 130.3 33.1938 130.46C33.1138 130.62 33.0498 130.792 33.0018 130.976L31.8138 130.52C31.9018 130.256 32.0218 130.004 32.1738 129.764C32.3258 129.516 32.5178 129.296 32.7498 129.104C32.9818 128.912 33.2538 128.76 33.5658 128.648C33.8858 128.536 34.2578 128.48 34.6818 128.48C35.1058 128.48 35.4858 128.544 35.8218 128.672C36.1578 128.792 36.4378 128.964 36.6618 129.188C36.8938 129.404 37.0698 129.664 37.1898 129.968C37.3098 130.272 37.3698 130.604 37.3698 130.964C37.3698 131.3 37.3178 131.612 37.2138 131.9C37.1098 132.188 36.9658 132.46 36.7818 132.716C36.5978 132.972 36.3818 133.216 36.1338 133.448C35.8938 133.68 35.6378 133.916 35.3658 134.156L33.3978 135.848H37.6218V137Z" fill="#1A1E23"/>
<path d="M85.4138 132.068C85.9338 132.068 86.3178 131.96 86.5658 131.744C86.8138 131.52 86.9378 131.236 86.9378 130.892V130.808C86.9378 130.424 86.8178 130.132 86.5778 129.932C86.3378 129.724 86.0138 129.62 85.6058 129.62C85.2058 129.62 84.8658 129.712 84.5858 129.896C84.3058 130.072 84.0698 130.32 83.8778 130.64L82.9778 129.86C83.1058 129.676 83.2498 129.5 83.4098 129.332C83.5698 129.164 83.7578 129.02 83.9738 128.9C84.1898 128.772 84.4338 128.672 84.7058 128.6C84.9778 128.52 85.2898 128.48 85.6418 128.48C86.0338 128.48 86.3978 128.528 86.7338 128.624C87.0698 128.72 87.3578 128.864 87.5978 129.056C87.8378 129.24 88.0258 129.468 88.1618 129.74C88.2978 130.004 88.3658 130.304 88.3658 130.64C88.3658 130.904 88.3218 131.144 88.2338 131.36C88.1538 131.576 88.0378 131.768 87.8858 131.936C87.7418 132.096 87.5698 132.228 87.3698 132.332C87.1778 132.436 86.9738 132.512 86.7578 132.56V132.62C86.9978 132.668 87.2218 132.748 87.4298 132.86C87.6458 132.964 87.8338 133.104 87.9938 133.28C88.1538 133.448 88.2778 133.652 88.3658 133.892C88.4618 134.124 88.5098 134.392 88.5098 134.696C88.5098 135.064 88.4378 135.4 88.2938 135.704C88.1498 136 87.9458 136.256 87.6818 136.472C87.4258 136.688 87.1138 136.856 86.7458 136.976C86.3778 137.088 85.9698 137.144 85.5218 137.144C85.1298 137.144 84.7858 137.1 84.4898 137.012C84.1938 136.932 83.9298 136.824 83.6978 136.688C83.4738 136.544 83.2738 136.384 83.0978 136.208C82.9298 136.024 82.7818 135.836 82.6538 135.644L83.6498 134.864C83.7538 135.032 83.8618 135.188 83.9738 135.332C84.0938 135.468 84.2258 135.588 84.3698 135.692C84.5218 135.788 84.6898 135.864 84.8738 135.92C85.0658 135.976 85.2818 136.004 85.5218 136.004C86.0338 136.004 86.4258 135.884 86.6978 135.644C86.9698 135.396 87.1058 135.056 87.1058 134.624V134.54C87.1058 134.108 86.9618 133.78 86.6738 133.556C86.3858 133.332 85.9778 133.22 85.4498 133.22H84.5618V132.068H85.4138Z" fill="#1A1E23"/>
<path d="M137.718 137V135.368H133.83V134.204L137.226 128.624H139.002V134.3H140.142V135.368H139.002V137H137.718ZM134.982 134.3H137.718V129.86H137.634L134.982 134.3Z" fill="#1A1E23"/>
<path d="M190.656 129.8H186.936L186.72 132.764H186.804C186.9 132.596 187 132.448 187.104 132.32C187.208 132.184 187.328 132.068 187.464 131.972C187.6 131.876 187.756 131.804 187.932 131.756C188.108 131.7 188.316 131.672 188.556 131.672C188.916 131.672 189.248 131.732 189.552 131.852C189.864 131.972 190.132 132.144 190.356 132.368C190.588 132.592 190.768 132.868 190.896 133.196C191.024 133.516 191.088 133.88 191.088 134.288C191.088 134.704 191.02 135.088 190.884 135.44C190.756 135.792 190.564 136.096 190.308 136.352C190.052 136.6 189.736 136.796 189.36 136.94C188.992 137.076 188.572 137.144 188.1 137.144C187.724 137.144 187.392 137.1 187.104 137.012C186.816 136.932 186.56 136.824 186.336 136.688C186.12 136.544 185.928 136.384 185.76 136.208C185.6 136.024 185.456 135.836 185.328 135.644L186.312 134.864C186.416 135.032 186.524 135.184 186.636 135.32C186.748 135.456 186.876 135.576 187.02 135.68C187.164 135.784 187.324 135.864 187.5 135.92C187.684 135.976 187.892 136.004 188.124 136.004C188.62 136.004 189 135.868 189.264 135.596C189.536 135.324 189.672 134.948 189.672 134.468V134.324C189.672 133.844 189.536 133.468 189.264 133.196C189 132.924 188.62 132.788 188.124 132.788C187.764 132.788 187.476 132.856 187.26 132.992C187.044 133.128 186.86 133.28 186.708 133.448L185.592 133.292L185.904 128.624H190.656V129.8Z" fill="#1A1E23"/>
<path d="M239.324 137.144C238.86 137.144 238.444 137.068 238.076 136.916C237.716 136.764 237.408 136.548 237.152 136.268C236.904 135.98 236.712 135.636 236.576 135.236C236.44 134.836 236.372 134.384 236.372 133.88C236.372 133.272 236.464 132.7 236.648 132.164C236.832 131.628 237.068 131.136 237.356 130.688C237.644 130.24 237.964 129.844 238.316 129.5C238.676 129.148 239.028 128.856 239.372 128.624H241.172C240.7 128.968 240.276 129.3 239.9 129.62C239.524 129.94 239.196 130.268 238.916 130.604C238.636 130.94 238.4 131.296 238.208 131.672C238.024 132.048 237.88 132.46 237.776 132.908L237.86 132.932C237.948 132.764 238.048 132.608 238.16 132.464C238.28 132.312 238.416 132.18 238.568 132.068C238.728 131.956 238.908 131.868 239.108 131.804C239.308 131.74 239.54 131.708 239.804 131.708C240.156 131.708 240.48 131.768 240.776 131.888C241.08 132.008 241.34 132.184 241.556 132.416C241.78 132.64 241.952 132.912 242.072 133.232C242.2 133.552 242.264 133.908 242.264 134.3C242.264 134.724 242.192 135.112 242.048 135.464C241.912 135.808 241.716 136.104 241.46 136.352C241.204 136.6 240.892 136.796 240.524 136.94C240.164 137.076 239.764 137.144 239.324 137.144ZM239.324 136.04C239.812 136.04 240.192 135.912 240.464 135.656C240.736 135.392 240.872 135.008 240.872 134.504V134.336C240.872 133.832 240.736 133.452 240.464 133.196C240.192 132.932 239.812 132.8 239.324 132.8C238.836 132.8 238.456 132.932 238.184 133.196C237.912 133.452 237.776 133.832 237.776 134.336V134.504C237.776 135.008 237.912 135.392 238.184 135.656C238.456 135.912 238.836 136.04 239.324 136.04Z" fill="#1A1E23"/>
<path d="M288.892 137L291.928 129.74H288.76V131.288H287.596V128.624H293.272V129.8L290.32 137H288.892Z" fill="#1A1E23"/>
<path d="M341.58 137.144C341.092 137.144 340.66 137.084 340.284 136.964C339.916 136.836 339.604 136.664 339.348 136.448C339.1 136.232 338.908 135.976 338.772 135.68C338.644 135.384 338.58 135.064 338.58 134.72C338.58 134.16 338.732 133.712 339.036 133.376C339.348 133.032 339.756 132.792 340.26 132.656V132.56C339.828 132.408 339.48 132.168 339.216 131.84C338.96 131.512 338.832 131.108 338.832 130.628C338.832 130.308 338.892 130.016 339.012 129.752C339.14 129.488 339.32 129.264 339.552 129.08C339.784 128.888 340.072 128.74 340.416 128.636C340.76 128.532 341.148 128.48 341.58 128.48C342.012 128.48 342.4 128.532 342.744 128.636C343.088 128.74 343.376 128.888 343.608 129.08C343.84 129.264 344.016 129.488 344.136 129.752C344.264 130.016 344.328 130.308 344.328 130.628C344.328 131.108 344.196 131.512 343.932 131.84C343.676 132.168 343.332 132.408 342.9 132.56V132.656C343.404 132.792 343.808 133.032 344.112 133.376C344.424 133.712 344.58 134.16 344.58 134.72C344.58 135.064 344.512 135.384 344.376 135.68C344.248 135.976 344.056 136.232 343.8 136.448C343.552 136.664 343.24 136.836 342.864 136.964C342.496 137.084 342.068 137.144 341.58 137.144ZM341.58 136.052C342.084 136.052 342.472 135.936 342.744 135.704C343.024 135.472 343.164 135.148 343.164 134.732V134.492C343.164 134.076 343.024 133.752 342.744 133.52C342.472 133.288 342.084 133.172 341.58 133.172C341.076 133.172 340.684 133.288 340.404 133.52C340.132 133.752 339.996 134.076 339.996 134.492V134.732C339.996 135.148 340.132 135.472 340.404 135.704C340.684 135.936 341.076 136.052 341.58 136.052ZM341.58 132.128C342.044 132.128 342.396 132.028 342.636 131.828C342.884 131.628 343.008 131.336 343.008 130.952V130.748C343.008 130.364 342.884 130.072 342.636 129.872C342.396 129.672 342.044 129.572 341.58 129.572C341.116 129.572 340.76 129.672 340.512 129.872C340.272 130.072 340.152 130.364 340.152 130.748V130.952C340.152 131.336 340.272 131.628 340.512 131.828C340.76 132.028 341.116 132.128 341.58 132.128Z" fill="#1A1E23"/>
<path d="M37.6578 157.744C37.6578 158.352 37.5658 158.924 37.3818 159.46C37.1978 159.996 36.9618 160.488 36.6738 160.936C36.3858 161.384 36.0618 161.784 35.7018 162.136C35.3498 162.488 35.0018 162.776 34.6578 163H32.8578C33.3298 162.656 33.7538 162.324 34.1298 162.004C34.5058 161.684 34.8338 161.356 35.1138 161.02C35.3938 160.684 35.6258 160.328 35.8098 159.952C36.0018 159.576 36.1498 159.164 36.2538 158.716L36.1698 158.692C36.0818 158.86 35.9778 159.02 35.8578 159.172C35.7458 159.316 35.6098 159.444 35.4498 159.556C35.2978 159.668 35.1218 159.756 34.9218 159.82C34.7218 159.884 34.4898 159.916 34.2258 159.916C33.8738 159.916 33.5458 159.856 33.2418 159.736C32.9458 159.616 32.6858 159.444 32.4618 159.22C32.2458 158.988 32.0738 158.716 31.9458 158.404C31.8258 158.084 31.7658 157.724 31.7658 157.324C31.7658 156.908 31.8338 156.524 31.9698 156.172C32.1138 155.82 32.3138 155.52 32.5698 155.272C32.8258 155.024 33.1338 154.832 33.4938 154.696C33.8538 154.552 34.2578 154.48 34.7058 154.48C35.1698 154.48 35.5818 154.556 35.9418 154.708C36.3098 154.86 36.6178 155.08 36.8658 155.368C37.1218 155.648 37.3178 155.988 37.4538 156.388C37.5898 156.788 37.6578 157.24 37.6578 157.744ZM34.7058 158.824C35.1938 158.824 35.5738 158.696 35.8458 158.44C36.1178 158.176 36.2538 157.792 36.2538 157.288V157.12C36.2538 156.616 36.1178 156.236 35.8458 155.98C35.5738 155.716 35.1938 155.584 34.7058 155.584C34.2178 155.584 33.8378 155.716 33.5658 155.98C33.2938 156.236 33.1578 156.616 33.1578 157.12V157.288C33.1578 157.792 33.2938 158.176 33.5658 158.44C33.8378 158.696 34.2178 158.824 34.7058 158.824Z" fill="#1A1E23"/>
<path d="M79.7495 163V161.872H82.1015V155.608H82.0055L80.0615 157.684L79.2335 156.94L81.3695 154.624H83.4335V161.872H85.4735V163H79.7495ZM89.4888 163.144C88.9688 163.144 88.5168 163.048 88.1328 162.856C87.7488 162.656 87.4328 162.372 87.1848 162.004C86.9368 161.636 86.7528 161.184 86.6328 160.648C86.5128 160.112 86.4528 159.5 86.4528 158.812C86.4528 158.132 86.5128 157.524 86.6328 156.988C86.7528 156.444 86.9368 155.988 87.1848 155.62C87.4328 155.252 87.7488 154.972 88.1328 154.78C88.5168 154.58 88.9688 154.48 89.4888 154.48C90.5288 154.48 91.2928 154.86 91.7808 155.62C92.2768 156.38 92.5248 157.444 92.5248 158.812C92.5248 160.18 92.2768 161.244 91.7808 162.004C91.2928 162.764 90.5288 163.144 89.4888 163.144ZM89.4888 161.992C89.7768 161.992 90.0208 161.936 90.2208 161.824C90.4288 161.704 90.5968 161.536 90.7248 161.32C90.8528 161.104 90.9448 160.848 91.0008 160.552C91.0568 160.248 91.0848 159.912 91.0848 159.544V158.08C91.0848 157.712 91.0568 157.38 91.0008 157.084C90.9448 156.78 90.8528 156.52 90.7248 156.304C90.5968 156.088 90.4288 155.924 90.2208 155.812C90.0208 155.692 89.7768 155.632 89.4888 155.632C89.2008 155.632 88.9528 155.692 88.7448 155.812C88.5448 155.924 88.3808 156.088 88.2528 156.304C88.1248 156.52 88.0328 156.78 87.9768 157.084C87.9208 157.38 87.8928 157.712 87.8928 158.08V159.544C87.8928 159.912 87.9208 160.248 87.9768 160.552C88.0328 160.848 88.1248 161.104 88.2528 161.32C88.3808 161.536 88.5448 161.704 88.7448 161.824C88.9528 161.936 89.2008 161.992 89.4888 161.992Z" fill="#1A1E23"/>
<path d="M130.889 163V161.872H133.241V155.608H133.145L131.201 157.684L130.373 156.94L132.509 154.624H134.573V161.872H136.613V163H130.889ZM138.085 163V161.872H140.437V155.608H140.341L138.397 157.684L137.569 156.94L139.705 154.624H141.769V161.872H143.809V163H138.085Z" fill="#1A1E23"/>
<path d="M182.029 163V161.872H184.381V155.608H184.285L182.341 157.684L181.513 156.94L183.649 154.624H185.713V161.872H187.753V163H182.029ZM194.661 163H188.973V161.704L191.649 159.316C192.073 158.932 192.397 158.568 192.621 158.224C192.853 157.872 192.969 157.504 192.969 157.12V156.964C192.969 156.556 192.845 156.236 192.597 156.004C192.357 155.772 192.029 155.656 191.613 155.656C191.381 155.656 191.177 155.692 191.001 155.764C190.833 155.828 190.685 155.92 190.557 156.04C190.429 156.16 190.321 156.3 190.233 156.46C190.153 156.62 190.089 156.792 190.041 156.976L188.853 156.52C188.941 156.256 189.061 156.004 189.213 155.764C189.365 155.516 189.557 155.296 189.789 155.104C190.021 154.912 190.293 154.76 190.605 154.648C190.925 154.536 191.297 154.48 191.721 154.48C192.145 154.48 192.525 154.544 192.861 154.672C193.197 154.792 193.477 154.964 193.701 155.188C193.933 155.404 194.109 155.664 194.229 155.968C194.349 156.272 194.409 156.604 194.409 156.964C194.409 157.3 194.357 157.612 194.253 157.9C194.149 158.188 194.005 158.46 193.821 158.716C193.637 158.972 193.421 159.216 193.173 159.448C192.933 159.68 192.677 159.916 192.405 160.156L190.437 161.848H194.661V163Z" fill="#1A1E23"/>
<path d="M233.17 163V161.872H235.522V155.608H235.426L233.482 157.684L232.654 156.94L234.79 154.624H236.854V161.872H238.894V163H233.17ZM242.453 158.068C242.973 158.068 243.357 157.96 243.605 157.744C243.853 157.52 243.977 157.236 243.977 156.892V156.808C243.977 156.424 243.857 156.132 243.617 155.932C243.377 155.724 243.053 155.62 242.645 155.62C242.245 155.62 241.905 155.712 241.625 155.896C241.345 156.072 241.109 156.32 240.917 156.64L240.017 155.86C240.145 155.676 240.289 155.5 240.449 155.332C240.609 155.164 240.797 155.02 241.013 154.9C241.229 154.772 241.473 154.672 241.745 154.6C242.017 154.52 242.329 154.48 242.681 154.48C243.073 154.48 243.437 154.528 243.773 154.624C244.109 154.72 244.397 154.864 244.637 155.056C244.877 155.24 245.065 155.468 245.201 155.74C245.337 156.004 245.405 156.304 245.405 156.64C245.405 156.904 245.361 157.144 245.273 157.36C245.193 157.576 245.077 157.768 244.925 157.936C244.781 158.096 244.609 158.228 244.409 158.332C244.217 158.436 244.013 158.512 243.797 158.56V158.62C244.037 158.668 244.261 158.748 244.469 158.86C244.685 158.964 244.873 159.104 245.033 159.28C245.193 159.448 245.317 159.652 245.405 159.892C245.501 160.124 245.549 160.392 245.549 160.696C245.549 161.064 245.477 161.4 245.333 161.704C245.189 162 244.985 162.256 244.721 162.472C244.465 162.688 244.153 162.856 243.785 162.976C243.417 163.088 243.009 163.144 242.561 163.144C242.169 163.144 241.825 163.1 241.529 163.012C241.233 162.932 240.969 162.824 240.737 162.688C240.513 162.544 240.313 162.384 240.137 162.208C239.969 162.024 239.821 161.836 239.693 161.644L240.689 160.864C240.793 161.032 240.901 161.188 241.013 161.332C241.133 161.468 241.265 161.588 241.409 161.692C241.561 161.788 241.729 161.864 241.913 161.92C242.105 161.976 242.321 162.004 242.561 162.004C243.073 162.004 243.465 161.884 243.737 161.644C244.009 161.396 244.145 161.056 244.145 160.624V160.54C244.145 160.108 244.001 159.78 243.713 159.556C243.425 159.332 243.017 159.22 242.489 159.22H241.601V158.068H242.453Z" fill="#1A1E23"/>
<rect x="278.77" y="147.5" width="23" height="23" rx="11.5" stroke="#0073E6"/>
<path d="M284.309 163V161.872H286.661V155.608H286.565L284.621 157.684L283.793 156.94L285.929 154.624H287.993V161.872H290.033V163H284.309ZM294.757 163V161.368H290.869V160.204L294.265 154.624H296.041V160.3H297.181V161.368H296.041V163H294.757ZM292.021 160.3H294.757V155.86H294.673L292.021 160.3Z" fill="#1A1E23"/>
<path d="M335.45 163V161.872H337.802V155.608H337.706L335.762 157.684L334.934 156.94L337.07 154.624H339.134V161.872H341.174V163H335.45ZM347.685 155.8H343.965L343.749 158.764H343.833C343.929 158.596 344.029 158.448 344.133 158.32C344.237 158.184 344.357 158.068 344.493 157.972C344.629 157.876 344.785 157.804 344.961 157.756C345.137 157.7 345.345 157.672 345.585 157.672C345.945 157.672 346.277 157.732 346.581 157.852C346.893 157.972 347.161 158.144 347.385 158.368C347.617 158.592 347.797 158.868 347.925 159.196C348.053 159.516 348.117 159.88 348.117 160.288C348.117 160.704 348.049 161.088 347.913 161.44C347.785 161.792 347.593 162.096 347.337 162.352C347.081 162.6 346.765 162.796 346.389 162.94C346.021 163.076 345.601 163.144 345.129 163.144C344.753 163.144 344.421 163.1 344.133 163.012C343.845 162.932 343.589 162.824 343.365 162.688C343.149 162.544 342.957 162.384 342.789 162.208C342.629 162.024 342.485 161.836 342.357 161.644L343.341 160.864C343.445 161.032 343.553 161.184 343.665 161.32C343.777 161.456 343.905 161.576 344.049 161.68C344.193 161.784 344.353 161.864 344.529 161.92C344.713 161.976 344.921 162.004 345.153 162.004C345.649 162.004 346.029 161.868 346.293 161.596C346.565 161.324 346.701 160.948 346.701 160.468V160.324C346.701 159.844 346.565 159.468 346.293 159.196C346.029 158.924 345.649 158.788 345.153 158.788C344.793 158.788 344.505 158.856 344.289 158.992C344.073 159.128 343.889 159.28 343.737 159.448L342.621 159.292L342.933 154.624H347.685V155.8Z" fill="#1A1E23"/>
<path d="M28.6095 189V187.872H30.9615V181.608H30.8655L28.9215 183.684L28.0935 182.94L30.2295 180.624H32.2935V187.872H34.3335V189H28.6095ZM38.3728 189.144C37.9088 189.144 37.4928 189.068 37.1248 188.916C36.7648 188.764 36.4568 188.548 36.2008 188.268C35.9528 187.98 35.7608 187.636 35.6248 187.236C35.4888 186.836 35.4208 186.384 35.4208 185.88C35.4208 185.272 35.5128 184.7 35.6968 184.164C35.8808 183.628 36.1168 183.136 36.4048 182.688C36.6928 182.24 37.0128 181.844 37.3648 181.5C37.7248 181.148 38.0768 180.856 38.4208 180.624H40.2208C39.7488 180.968 39.3248 181.3 38.9488 181.62C38.5728 181.94 38.2448 182.268 37.9648 182.604C37.6848 182.94 37.4488 183.296 37.2568 183.672C37.0728 184.048 36.9288 184.46 36.8248 184.908L36.9088 184.932C36.9968 184.764 37.0968 184.608 37.2088 184.464C37.3288 184.312 37.4648 184.18 37.6168 184.068C37.7768 183.956 37.9568 183.868 38.1568 183.804C38.3568 183.74 38.5888 183.708 38.8528 183.708C39.2048 183.708 39.5288 183.768 39.8248 183.888C40.1288 184.008 40.3888 184.184 40.6048 184.416C40.8288 184.64 41.0008 184.912 41.1208 185.232C41.2488 185.552 41.3128 185.908 41.3128 186.3C41.3128 186.724 41.2408 187.112 41.0968 187.464C40.9608 187.808 40.7648 188.104 40.5088 188.352C40.2528 188.6 39.9408 188.796 39.5728 188.94C39.2128 189.076 38.8128 189.144 38.3728 189.144ZM38.3728 188.04C38.8608 188.04 39.2408 187.912 39.5128 187.656C39.7848 187.392 39.9208 187.008 39.9208 186.504V186.336C39.9208 185.832 39.7848 185.452 39.5128 185.196C39.2408 184.932 38.8608 184.8 38.3728 184.8C37.8848 184.8 37.5048 184.932 37.2328 185.196C36.9608 185.452 36.8248 185.832 36.8248 186.336V186.504C36.8248 187.008 36.9608 187.392 37.2328 187.656C37.5048 187.912 37.8848 188.04 38.3728 188.04Z" fill="#1A1E23"/>
<path d="M79.7495 189V187.872H82.1015V181.608H82.0055L80.0615 183.684L79.2335 182.94L81.3695 180.624H83.4335V187.872H85.4735V189H79.7495ZM87.9408 189L90.9768 181.74H87.8088V183.288H86.6448V180.624H92.3208V181.8L89.3688 189H87.9408Z" fill="#1A1E23"/>
<path d="M130.889 189V187.872H133.241V181.608H133.145L131.201 183.684L130.373 182.94L132.509 180.624H134.573V187.872H136.613V189H130.889ZM140.629 189.144C140.141 189.144 139.709 189.084 139.333 188.964C138.965 188.836 138.653 188.664 138.397 188.448C138.149 188.232 137.957 187.976 137.821 187.68C137.693 187.384 137.629 187.064 137.629 186.72C137.629 186.16 137.781 185.712 138.085 185.376C138.397 185.032 138.805 184.792 139.309 184.656V184.56C138.877 184.408 138.529 184.168 138.265 183.84C138.009 183.512 137.881 183.108 137.881 182.628C137.881 182.308 137.941 182.016 138.061 181.752C138.189 181.488 138.369 181.264 138.601 181.08C138.833 180.888 139.121 180.74 139.465 180.636C139.809 180.532 140.197 180.48 140.629 180.48C141.061 180.48 141.449 180.532 141.793 180.636C142.137 180.74 142.425 180.888 142.657 181.08C142.889 181.264 143.065 181.488 143.185 181.752C143.313 182.016 143.377 182.308 143.377 182.628C143.377 183.108 143.245 183.512 142.981 183.84C142.725 184.168 142.381 184.408 141.949 184.56V184.656C142.453 184.792 142.857 185.032 143.161 185.376C143.473 185.712 143.629 186.16 143.629 186.72C143.629 187.064 143.561 187.384 143.425 187.68C143.297 187.976 143.105 188.232 142.849 188.448C142.601 188.664 142.289 188.836 141.913 188.964C141.545 189.084 141.117 189.144 140.629 189.144ZM140.629 188.052C141.133 188.052 141.521 187.936 141.793 187.704C142.073 187.472 142.213 187.148 142.213 186.732V186.492C142.213 186.076 142.073 185.752 141.793 185.52C141.521 185.288 141.133 185.172 140.629 185.172C140.125 185.172 139.733 185.288 139.453 185.52C139.181 185.752 139.045 186.076 139.045 186.492V186.732C139.045 187.148 139.181 187.472 139.453 187.704C139.733 187.936 140.125 188.052 140.629 188.052ZM140.629 184.128C141.093 184.128 141.445 184.028 141.685 183.828C141.933 183.628 142.057 183.336 142.057 182.952V182.748C142.057 182.364 141.933 182.072 141.685 181.872C141.445 181.672 141.093 181.572 140.629 181.572C140.165 181.572 139.809 181.672 139.561 181.872C139.321 182.072 139.201 182.364 139.201 182.748V182.952C139.201 183.336 139.321 183.628 139.561 183.828C139.809 184.028 140.165 184.128 140.629 184.128Z" fill="#1A1E23"/>
<path d="M182.029 189V187.872H184.381V181.608H184.285L182.341 183.684L181.513 182.94L183.649 180.624H185.713V187.872H187.753V189H182.029ZM194.697 183.744C194.697 184.352 194.605 184.924 194.421 185.46C194.237 185.996 194.001 186.488 193.713 186.936C193.425 187.384 193.101 187.784 192.741 188.136C192.389 188.488 192.041 188.776 191.697 189H189.897C190.369 188.656 190.793 188.324 191.169 188.004C191.545 187.684 191.873 187.356 192.153 187.02C192.433 186.684 192.665 186.328 192.849 185.952C193.041 185.576 193.189 185.164 193.293 184.716L193.209 184.692C193.121 184.86 193.017 185.02 192.897 185.172C192.785 185.316 192.649 185.444 192.489 185.556C192.337 185.668 192.161 185.756 191.961 185.82C191.761 185.884 191.529 185.916 191.265 185.916C190.913 185.916 190.585 185.856 190.281 185.736C189.985 185.616 189.725 185.444 189.501 185.22C189.285 184.988 189.113 184.716 188.985 184.404C188.865 184.084 188.805 183.724 188.805 183.324C188.805 182.908 188.873 182.524 189.009 182.172C189.153 181.82 189.353 181.52 189.609 181.272C189.865 181.024 190.173 180.832 190.533 180.696C190.893 180.552 191.297 180.48 191.745 180.48C192.209 180.48 192.621 180.556 192.981 180.708C193.349 180.86 193.657 181.08 193.905 181.368C194.161 181.648 194.357 181.988 194.493 182.388C194.629 182.788 194.697 183.24 194.697 183.744ZM191.745 184.824C192.233 184.824 192.613 184.696 192.885 184.44C193.157 184.176 193.293 183.792 193.293 183.288V183.12C193.293 182.616 193.157 182.236 192.885 181.98C192.613 181.716 192.233 181.584 191.745 181.584C191.257 181.584 190.877 181.716 190.605 181.98C190.333 182.236 190.197 182.616 190.197 183.12V183.288C190.197 183.792 190.333 184.176 190.605 184.44C190.877 184.696 191.257 184.824 191.745 184.824Z" fill="#1A1E23"/>
<path d="M238.606 189H232.918V187.704L235.594 185.316C236.018 184.932 236.342 184.568 236.566 184.224C236.798 183.872 236.914 183.504 236.914 183.12V182.964C236.914 182.556 236.79 182.236 236.542 182.004C236.302 181.772 235.974 181.656 235.558 181.656C235.326 181.656 235.122 181.692 234.946 181.764C234.778 181.828 234.63 181.92 234.502 182.04C234.374 182.16 234.266 182.3 234.178 182.46C234.098 182.62 234.034 182.792 233.986 182.976L232.798 182.52C232.886 182.256 233.006 182.004 233.158 181.764C233.31 181.516 233.502 181.296 233.734 181.104C233.966 180.912 234.238 180.76 234.55 180.648C234.87 180.536 235.242 180.48 235.666 180.48C236.09 180.48 236.47 180.544 236.806 180.672C237.142 180.792 237.422 180.964 237.646 181.188C237.878 181.404 238.054 181.664 238.174 181.968C238.294 182.272 238.354 182.604 238.354 182.964C238.354 183.3 238.302 183.612 238.198 183.9C238.094 184.188 237.95 184.46 237.766 184.716C237.582 184.972 237.366 185.216 237.118 185.448C236.878 185.68 236.622 185.916 236.35 186.156L234.382 187.848H238.606V189ZM242.909 189.144C242.389 189.144 241.937 189.048 241.553 188.856C241.169 188.656 240.853 188.372 240.605 188.004C240.357 187.636 240.173 187.184 240.053 186.648C239.933 186.112 239.873 185.5 239.873 184.812C239.873 184.132 239.933 183.524 240.053 182.988C240.173 182.444 240.357 181.988 240.605 181.62C240.853 181.252 241.169 180.972 241.553 180.78C241.937 180.58 242.389 180.48 242.909 180.48C243.949 180.48 244.713 180.86 245.201 181.62C245.697 182.38 245.945 183.444 245.945 184.812C245.945 186.18 245.697 187.244 245.201 188.004C244.713 188.764 243.949 189.144 242.909 189.144ZM242.909 187.992C243.197 187.992 243.441 187.936 243.641 187.824C243.849 187.704 244.017 187.536 244.145 187.32C244.273 187.104 244.365 186.848 244.421 186.552C244.477 186.248 244.505 185.912 244.505 185.544V184.08C244.505 183.712 244.477 183.38 244.421 183.084C244.365 182.78 244.273 182.52 244.145 182.304C244.017 182.088 243.849 181.924 243.641 181.812C243.441 181.692 243.197 181.632 242.909 181.632C242.621 181.632 242.373 181.692 242.165 181.812C241.965 181.924 241.801 182.088 241.673 182.304C241.545 182.52 241.453 182.78 241.397 183.084C241.341 183.38 241.313 183.712 241.313 184.08V185.544C241.313 185.912 241.341 186.248 241.397 186.552C241.453 186.848 241.545 187.104 241.673 187.32C241.801 187.536 241.965 187.704 242.165 187.824C242.373 187.936 242.621 187.992 242.909 187.992Z" fill="#1A1E23"/>
<path d="M289.745 189H284.057V187.704L286.733 185.316C287.157 184.932 287.481 184.568 287.705 184.224C287.937 183.872 288.053 183.504 288.053 183.12V182.964C288.053 182.556 287.929 182.236 287.681 182.004C287.441 181.772 287.113 181.656 286.697 181.656C286.465 181.656 286.261 181.692 286.085 181.764C285.917 181.828 285.769 181.92 285.641 182.04C285.513 182.16 285.405 182.3 285.317 182.46C285.237 182.62 285.173 182.792 285.125 182.976L283.937 182.52C284.025 182.256 284.145 182.004 284.297 181.764C284.449 181.516 284.641 181.296 284.873 181.104C285.105 180.912 285.377 180.76 285.689 180.648C286.009 180.536 286.381 180.48 286.805 180.48C287.229 180.48 287.609 180.544 287.945 180.672C288.281 180.792 288.561 180.964 288.785 181.188C289.017 181.404 289.193 181.664 289.313 181.968C289.433 182.272 289.493 182.604 289.493 182.964C289.493 183.3 289.441 183.612 289.337 183.9C289.233 184.188 289.089 184.46 288.905 184.716C288.721 184.972 288.505 185.216 288.257 185.448C288.017 185.68 287.761 185.916 287.489 186.156L285.521 187.848H289.745V189ZM291.505 189V187.872H293.857V181.608H293.761L291.817 183.684L290.989 182.94L293.125 180.624H295.189V187.872H297.229V189H291.505Z" fill="#1A1E23"/>
<path d="M340.886 189H335.198V187.704L337.874 185.316C338.298 184.932 338.622 184.568 338.846 184.224C339.078 183.872 339.194 183.504 339.194 183.12V182.964C339.194 182.556 339.07 182.236 338.822 182.004C338.582 181.772 338.254 181.656 337.838 181.656C337.606 181.656 337.402 181.692 337.226 181.764C337.058 181.828 336.91 181.92 336.782 182.04C336.654 182.16 336.546 182.3 336.458 182.46C336.378 182.62 336.314 182.792 336.266 182.976L335.078 182.52C335.166 182.256 335.286 182.004 335.438 181.764C335.59 181.516 335.782 181.296 336.014 181.104C336.246 180.912 336.518 180.76 336.83 180.648C337.15 180.536 337.522 180.48 337.946 180.48C338.37 180.48 338.75 180.544 339.086 180.672C339.422 180.792 339.702 180.964 339.926 181.188C340.158 181.404 340.334 181.664 340.454 181.968C340.574 182.272 340.634 182.604 340.634 182.964C340.634 183.3 340.582 183.612 340.478 183.9C340.374 184.188 340.23 184.46 340.046 184.716C339.862 184.972 339.646 185.216 339.398 185.448C339.158 185.68 338.902 185.916 338.63 186.156L336.662 187.848H340.886V189ZM348.081 189H342.393V187.704L345.069 185.316C345.493 184.932 345.817 184.568 346.041 184.224C346.273 183.872 346.389 183.504 346.389 183.12V182.964C346.389 182.556 346.265 182.236 346.017 182.004C345.777 181.772 345.449 181.656 345.033 181.656C344.801 181.656 344.597 181.692 344.421 181.764C344.253 181.828 344.105 181.92 343.977 182.04C343.849 182.16 343.741 182.3 343.653 182.46C343.573 182.62 343.509 182.792 343.461 182.976L342.273 182.52C342.361 182.256 342.481 182.004 342.633 181.764C342.785 181.516 342.977 181.296 343.209 181.104C343.441 180.912 343.713 180.76 344.025 180.648C344.345 180.536 344.717 180.48 345.141 180.48C345.565 180.48 345.945 180.544 346.281 180.672C346.617 180.792 346.897 180.964 347.121 181.188C347.353 181.404 347.529 181.664 347.649 181.968C347.769 182.272 347.829 182.604 347.829 182.964C347.829 183.3 347.777 183.612 347.673 183.9C347.569 184.188 347.425 184.46 347.241 184.716C347.057 184.972 346.841 185.216 346.593 185.448C346.353 185.68 346.097 185.916 345.825 186.156L343.857 187.848H348.081V189Z" fill="#1A1E23"/>
<path d="M34.0455 215H28.3575V213.704L31.0335 211.316C31.4575 210.932 31.7815 210.568 32.0055 210.224C32.2375 209.872 32.3535 209.504 32.3535 209.12V208.964C32.3535 208.556 32.2295 208.236 31.9815 208.004C31.7415 207.772 31.4135 207.656 30.9975 207.656C30.7655 207.656 30.5615 207.692 30.3855 207.764C30.2175 207.828 30.0695 207.92 29.9415 208.04C29.8135 208.16 29.7055 208.3 29.6175 208.46C29.5375 208.62 29.4735 208.792 29.4255 208.976L28.2375 208.52C28.3255 208.256 28.4455 208.004 28.5975 207.764C28.7495 207.516 28.9415 207.296 29.1735 207.104C29.4055 206.912 29.6775 206.76 29.9895 206.648C30.3095 206.536 30.6815 206.48 31.1055 206.48C31.5295 206.48 31.9095 206.544 32.2455 206.672C32.5815 206.792 32.8615 206.964 33.0855 207.188C33.3175 207.404 33.4935 207.664 33.6135 207.968C33.7335 208.272 33.7935 208.604 33.7935 208.964C33.7935 209.3 33.7415 209.612 33.6375 209.9C33.5335 210.188 33.3895 210.46 33.2055 210.716C33.0215 210.972 32.8055 211.216 32.5575 211.448C32.3175 211.68 32.0615 211.916 31.7895 212.156L29.8215 213.848H34.0455V215ZM37.8928 210.068C38.4128 210.068 38.7968 209.96 39.0448 209.744C39.2928 209.52 39.4168 209.236 39.4168 208.892V208.808C39.4168 208.424 39.2968 208.132 39.0568 207.932C38.8168 207.724 38.4928 207.62 38.0848 207.62C37.6848 207.62 37.3448 207.712 37.0648 207.896C36.7848 208.072 36.5488 208.32 36.3568 208.64L35.4568 207.86C35.5848 207.676 35.7288 207.5 35.8888 207.332C36.0488 207.164 36.2368 207.02 36.4528 206.9C36.6688 206.772 36.9128 206.672 37.1848 206.6C37.4568 206.52 37.7688 206.48 38.1208 206.48C38.5128 206.48 38.8768 206.528 39.2128 206.624C39.5488 206.72 39.8368 206.864 40.0768 207.056C40.3168 207.24 40.5048 207.468 40.6408 207.74C40.7768 208.004 40.8448 208.304 40.8448 208.64C40.8448 208.904 40.8008 209.144 40.7128 209.36C40.6328 209.576 40.5168 209.768 40.3648 209.936C40.2208 210.096 40.0488 210.228 39.8488 210.332C39.6568 210.436 39.4528 210.512 39.2368 210.56V210.62C39.4768 210.668 39.7008 210.748 39.9088 210.86C40.1248 210.964 40.3128 211.104 40.4728 211.28C40.6328 211.448 40.7568 211.652 40.8448 211.892C40.9408 212.124 40.9888 212.392 40.9888 212.696C40.9888 213.064 40.9168 213.4 40.7728 213.704C40.6288 214 40.4248 214.256 40.1608 214.472C39.9048 214.688 39.5928 214.856 39.2248 214.976C38.8568 215.088 38.4488 215.144 38.0008 215.144C37.6088 215.144 37.2648 215.1 36.9688 215.012C36.6728 214.932 36.4088 214.824 36.1768 214.688C35.9528 214.544 35.7528 214.384 35.5768 214.208C35.4088 214.024 35.2608 213.836 35.1328 213.644L36.1288 212.864C36.2328 213.032 36.3408 213.188 36.4528 213.332C36.5728 213.468 36.7048 213.588 36.8488 213.692C37.0008 213.788 37.1688 213.864 37.3528 213.92C37.5448 213.976 37.7608 214.004 38.0008 214.004C38.5128 214.004 38.9048 213.884 39.1768 213.644C39.4488 213.396 39.5848 213.056 39.5848 212.624V212.54C39.5848 212.108 39.4408 211.78 39.1528 211.556C38.8648 211.332 38.4568 211.22 37.9288 211.22H37.0408V210.068H37.8928Z" fill="#1A1E23"/>
<path d="M85.1855 215H79.4975V213.704L82.1735 211.316C82.5975 210.932 82.9215 210.568 83.1455 210.224C83.3775 209.872 83.4935 209.504 83.4935 209.12V208.964C83.4935 208.556 83.3695 208.236 83.1215 208.004C82.8815 207.772 82.5535 207.656 82.1375 207.656C81.9055 207.656 81.7015 207.692 81.5255 207.764C81.3575 207.828 81.2095 207.92 81.0815 208.04C80.9535 208.16 80.8455 208.3 80.7575 208.46C80.6775 208.62 80.6135 208.792 80.5655 208.976L79.3775 208.52C79.4655 208.256 79.5855 208.004 79.7375 207.764C79.8895 207.516 80.0815 207.296 80.3135 207.104C80.5455 206.912 80.8175 206.76 81.1295 206.648C81.4495 206.536 81.8215 206.48 82.2455 206.48C82.6695 206.48 83.0495 206.544 83.3855 206.672C83.7215 206.792 84.0015 206.964 84.2255 207.188C84.4575 207.404 84.6335 207.664 84.7535 207.968C84.8735 208.272 84.9335 208.604 84.9335 208.964C84.9335 209.3 84.8815 209.612 84.7775 209.9C84.6735 210.188 84.5295 210.46 84.3455 210.716C84.1615 210.972 83.9455 211.216 83.6975 211.448C83.4575 211.68 83.2015 211.916 82.9295 212.156L80.9615 213.848H85.1855V215ZM90.1968 215V213.368H86.3088V212.204L89.7048 206.624H91.4808V212.3H92.6208V213.368H91.4808V215H90.1968ZM87.4608 212.3H90.1968V207.86H90.1128L87.4608 212.3Z" fill="#1A1E23"/>
<path d="M136.325 215H130.637V213.704L133.313 211.316C133.737 210.932 134.061 210.568 134.285 210.224C134.517 209.872 134.633 209.504 134.633 209.12V208.964C134.633 208.556 134.509 208.236 134.261 208.004C134.021 207.772 133.693 207.656 133.277 207.656C133.045 207.656 132.841 207.692 132.665 207.764C132.497 207.828 132.349 207.92 132.221 208.04C132.093 208.16 131.985 208.3 131.897 208.46C131.817 208.62 131.753 208.792 131.705 208.976L130.517 208.52C130.605 208.256 130.725 208.004 130.877 207.764C131.029 207.516 131.221 207.296 131.453 207.104C131.685 206.912 131.957 206.76 132.269 206.648C132.589 206.536 132.961 206.48 133.385 206.48C133.809 206.48 134.189 206.544 134.525 206.672C134.861 206.792 135.141 206.964 135.365 207.188C135.597 207.404 135.773 207.664 135.893 207.968C136.013 208.272 136.073 208.604 136.073 208.964C136.073 209.3 136.021 209.612 135.917 209.9C135.813 210.188 135.669 210.46 135.485 210.716C135.301 210.972 135.085 211.216 134.837 211.448C134.597 211.68 134.341 211.916 134.069 212.156L132.101 213.848H136.325V215ZM143.125 207.8H139.405L139.189 210.764H139.273C139.369 210.596 139.469 210.448 139.573 210.32C139.677 210.184 139.797 210.068 139.933 209.972C140.069 209.876 140.225 209.804 140.401 209.756C140.577 209.7 140.785 209.672 141.025 209.672C141.385 209.672 141.717 209.732 142.021 209.852C142.333 209.972 142.601 210.144 142.825 210.368C143.057 210.592 143.237 210.868 143.365 211.196C143.493 211.516 143.557 211.88 143.557 212.288C143.557 212.704 143.489 213.088 143.353 213.44C143.225 213.792 143.033 214.096 142.777 214.352C142.521 214.6 142.205 214.796 141.829 214.94C141.461 215.076 141.041 215.144 140.569 215.144C140.193 215.144 139.861 215.1 139.573 215.012C139.285 214.932 139.029 214.824 138.805 214.688C138.589 214.544 138.397 214.384 138.229 214.208C138.069 214.024 137.925 213.836 137.797 213.644L138.781 212.864C138.885 213.032 138.993 213.184 139.105 213.32C139.217 213.456 139.345 213.576 139.489 213.68C139.633 213.784 139.793 213.864 139.969 213.92C140.153 213.976 140.361 214.004 140.593 214.004C141.089 214.004 141.469 213.868 141.733 213.596C142.005 213.324 142.141 212.948 142.141 212.468V212.324C142.141 211.844 142.005 211.468 141.733 211.196C141.469 210.924 141.089 210.788 140.593 210.788C140.233 210.788 139.945 210.856 139.729 210.992C139.513 211.128 139.329 211.28 139.177 211.448L138.061 211.292L138.373 206.624H143.125V207.8Z" fill="#1A1E23"/>
<path d="M187.465 215H181.777V213.704L184.453 211.316C184.877 210.932 185.201 210.568 185.425 210.224C185.657 209.872 185.773 209.504 185.773 209.12V208.964C185.773 208.556 185.649 208.236 185.401 208.004C185.161 207.772 184.833 207.656 184.417 207.656C184.185 207.656 183.981 207.692 183.805 207.764C183.637 207.828 183.489 207.92 183.361 208.04C183.233 208.16 183.125 208.3 183.037 208.46C182.957 208.62 182.893 208.792 182.845 208.976L181.657 208.52C181.745 208.256 181.865 208.004 182.017 207.764C182.169 207.516 182.361 207.296 182.593 207.104C182.825 206.912 183.097 206.76 183.409 206.648C183.729 206.536 184.101 206.48 184.525 206.48C184.949 206.48 185.329 206.544 185.665 206.672C186.001 206.792 186.281 206.964 186.505 207.188C186.737 207.404 186.913 207.664 187.033 207.968C187.153 208.272 187.213 208.604 187.213 208.964C187.213 209.3 187.161 209.612 187.057 209.9C186.953 210.188 186.809 210.46 186.625 210.716C186.441 210.972 186.225 211.216 185.977 211.448C185.737 211.68 185.481 211.916 185.209 212.156L183.241 213.848H187.465V215ZM191.793 215.144C191.329 215.144 190.913 215.068 190.545 214.916C190.185 214.764 189.877 214.548 189.621 214.268C189.373 213.98 189.181 213.636 189.045 213.236C188.909 212.836 188.841 212.384 188.841 211.88C188.841 211.272 188.933 210.7 189.117 210.164C189.301 209.628 189.537 209.136 189.825 208.688C190.113 208.24 190.433 207.844 190.785 207.5C191.145 207.148 191.497 206.856 191.841 206.624H193.641C193.169 206.968 192.745 207.3 192.369 207.62C191.993 207.94 191.665 208.268 191.385 208.604C191.105 208.94 190.869 209.296 190.677 209.672C190.493 210.048 190.349 210.46 190.245 210.908L190.329 210.932C190.417 210.764 190.517 210.608 190.629 210.464C190.749 210.312 190.885 210.18 191.037 210.068C191.197 209.956 191.377 209.868 191.577 209.804C191.777 209.74 192.009 209.708 192.273 209.708C192.625 209.708 192.949 209.768 193.245 209.888C193.549 210.008 193.809 210.184 194.025 210.416C194.249 210.64 194.421 210.912 194.541 211.232C194.669 211.552 194.733 211.908 194.733 212.3C194.733 212.724 194.661 213.112 194.517 213.464C194.381 213.808 194.185 214.104 193.929 214.352C193.673 214.6 193.361 214.796 192.993 214.94C192.633 215.076 192.233 215.144 191.793 215.144ZM191.793 214.04C192.281 214.04 192.661 213.912 192.933 213.656C193.205 213.392 193.341 213.008 193.341 212.504V212.336C193.341 211.832 193.205 211.452 192.933 211.196C192.661 210.932 192.281 210.8 191.793 210.8C191.305 210.8 190.925 210.932 190.653 211.196C190.381 211.452 190.245 211.832 190.245 212.336V212.504C190.245 213.008 190.381 213.392 190.653 213.656C190.925 213.912 191.305 214.04 191.793 214.04Z" fill="#1A1E23"/>
<path d="M238.606 215H232.918V213.704L235.594 211.316C236.018 210.932 236.342 210.568 236.566 210.224C236.798 209.872 236.914 209.504 236.914 209.12V208.964C236.914 208.556 236.79 208.236 236.542 208.004C236.302 207.772 235.974 207.656 235.558 207.656C235.326 207.656 235.122 207.692 234.946 207.764C234.778 207.828 234.63 207.92 234.502 208.04C234.374 208.16 234.266 208.3 234.178 208.46C234.098 208.62 234.034 208.792 233.986 208.976L232.798 208.52C232.886 208.256 233.006 208.004 233.158 207.764C233.31 207.516 233.502 207.296 233.734 207.104C233.966 206.912 234.238 206.76 234.55 206.648C234.87 206.536 235.242 206.48 235.666 206.48C236.09 206.48 236.47 206.544 236.806 206.672C237.142 206.792 237.422 206.964 237.646 207.188C237.878 207.404 238.054 207.664 238.174 207.968C238.294 208.272 238.354 208.604 238.354 208.964C238.354 209.3 238.302 209.612 238.198 209.9C238.094 210.188 237.95 210.46 237.766 210.716C237.582 210.972 237.366 211.216 237.118 211.448C236.878 211.68 236.622 211.916 236.35 212.156L234.382 213.848H238.606V215ZM241.361 215L244.397 207.74H241.229V209.288H240.065V206.624H245.741V207.8L242.789 215H241.361Z" fill="#1A1E23"/>
<path d="M289.745 215H284.057V213.704L286.733 211.316C287.157 210.932 287.481 210.568 287.705 210.224C287.937 209.872 288.053 209.504 288.053 209.12V208.964C288.053 208.556 287.929 208.236 287.681 208.004C287.441 207.772 287.113 207.656 286.697 207.656C286.465 207.656 286.261 207.692 286.085 207.764C285.917 207.828 285.769 207.92 285.641 208.04C285.513 208.16 285.405 208.3 285.317 208.46C285.237 208.62 285.173 208.792 285.125 208.976L283.937 208.52C284.025 208.256 284.145 208.004 284.297 207.764C284.449 207.516 284.641 207.296 284.873 207.104C285.105 206.912 285.377 206.76 285.689 206.648C286.009 206.536 286.381 206.48 286.805 206.48C287.229 206.48 287.609 206.544 287.945 206.672C288.281 206.792 288.561 206.964 288.785 207.188C289.017 207.404 289.193 207.664 289.313 207.968C289.433 208.272 289.493 208.604 289.493 208.964C289.493 209.3 289.441 209.612 289.337 209.9C289.233 210.188 289.089 210.46 288.905 210.716C288.721 210.972 288.505 211.216 288.257 211.448C288.017 211.68 287.761 211.916 287.489 212.156L285.521 213.848H289.745V215ZM294.049 215.144C293.561 215.144 293.129 215.084 292.753 214.964C292.385 214.836 292.073 214.664 291.817 214.448C291.569 214.232 291.377 213.976 291.241 213.68C291.113 213.384 291.049 213.064 291.049 212.72C291.049 212.16 291.201 211.712 291.505 211.376C291.817 211.032 292.225 210.792 292.729 210.656V210.56C292.297 210.408 291.949 210.168 291.685 209.84C291.429 209.512 291.301 209.108 291.301 208.628C291.301 208.308 291.361 208.016 291.481 207.752C291.609 207.488 291.789 207.264 292.021 207.08C292.253 206.888 292.541 206.74 292.885 206.636C293.229 206.532 293.617 206.48 294.049 206.48C294.481 206.48 294.869 206.532 295.213 206.636C295.557 206.74 295.845 206.888 296.077 207.08C296.309 207.264 296.485 207.488 296.605 207.752C296.733 208.016 296.797 208.308 296.797 208.628C296.797 209.108 296.665 209.512 296.401 209.84C296.145 210.168 295.801 210.408 295.369 210.56V210.656C295.873 210.792 296.277 211.032 296.581 211.376C296.893 211.712 297.049 212.16 297.049 212.72C297.049 213.064 296.981 213.384 296.845 213.68C296.717 213.976 296.525 214.232 296.269 214.448C296.021 214.664 295.709 214.836 295.333 214.964C294.965 215.084 294.537 215.144 294.049 215.144ZM294.049 214.052C294.553 214.052 294.941 213.936 295.213 213.704C295.493 213.472 295.633 213.148 295.633 212.732V212.492C295.633 212.076 295.493 211.752 295.213 211.52C294.941 211.288 294.553 211.172 294.049 211.172C293.545 211.172 293.153 211.288 292.873 211.52C292.601 211.752 292.465 212.076 292.465 212.492V212.732C292.465 213.148 292.601 213.472 292.873 213.704C293.153 213.936 293.545 214.052 294.049 214.052ZM294.049 210.128C294.513 210.128 294.865 210.028 295.105 209.828C295.353 209.628 295.477 209.336 295.477 208.952V208.748C295.477 208.364 295.353 208.072 295.105 207.872C294.865 207.672 294.513 207.572 294.049 207.572C293.585 207.572 293.229 207.672 292.981 207.872C292.741 208.072 292.621 208.364 292.621 208.748V208.952C292.621 209.336 292.741 209.628 292.981 209.828C293.229 210.028 293.585 210.128 294.049 210.128Z" fill="#1A1E23"/>
</g>
<defs>
<filter id="filter0_d_1_49" x="0" y="0" width="376" height="271" filterUnits="userSpaceOnUse" color-interpolation-filters="sRGB">
<feFlood flood-opacity="0" result="BackgroundImageFix"/>
<feColorMatrix in="SourceAlpha" type="matrix" values="0 0 0 0 0 0 0 0 0 0 0 0 0 0 0 0 0 0 127 0" result="hardAlpha"/>
<feOffset dy="4"/>
<feGaussianBlur stdDeviation="4"/>
<feComposite in2="hardAlpha" operator="out"/>
<feColorMatrix type="matrix" values="0 0 0 0 0.87451 0 0 0 0 0.886275 0 0 0 0 0.905882 0 0 0 0.6 0"/>
<feBlend mode="normal" in2="BackgroundImageFix" result="effect1_dropShadow_1_49"/>
<feBlend mode="normal" in="SourceGraphic" in2="effect1_dropShadow_1_49" result="shape"/>
</filter>
<clipPath id="clip0_1_49">
<rect width="145.91" height="32" fill="white" transform="translate(27 21)"/>
</clipPath>
</defs>
</svg>
