<svg width="29" height="29" viewBox="0 0 29 29" fill="none" xmlns="http://www.w3.org/2000/svg">
<path fill-rule="evenodd" clip-rule="evenodd" d="M28.0519 6.61755V1.94039C28.0517 1.87027 28.0331 1.80143 27.998 1.74073C27.9629 1.68003 27.9126 1.62959 27.8519 1.59442C27.7912 1.55925 27.7224 1.54059 27.6523 1.54029C27.5822 1.53999 27.5132 1.55807 27.4523 1.59272L24.3723 3.35205C24.2496 3.42232 24.1477 3.52374 24.0768 3.64604C24.0059 3.76834 23.9686 3.90719 23.9686 4.04855V8.72572C23.9686 9.03372 24.3011 9.22739 24.5683 9.07339L27.6483 7.31405C27.7711 7.24369 27.8731 7.14209 27.944 7.01956C28.0149 6.89704 28.0522 6.75911 28.0519 6.61755ZM0.652774 1.59389L9.56961 6.70739C9.69107 6.77697 9.82862 6.81358 9.96861 6.81358C10.1086 6.81358 10.2461 6.77697 10.3676 6.70739L19.2844 1.59389C19.3454 1.55895 19.4145 1.54064 19.4848 1.54079C19.5551 1.54094 19.6241 1.55955 19.6849 1.59475C19.7458 1.62995 19.7963 1.68051 19.8315 1.74138C19.8666 1.80224 19.8852 1.87127 19.8853 1.94155V15.9766C19.8853 16.2507 19.7453 16.5051 19.5131 16.6532L14.0881 20.0984L17.7164 22.2357C17.9731 22.3874 18.2939 22.3839 18.5483 22.2252L23.9266 18.8676C23.9842 18.8314 24.0317 18.7811 24.0646 18.7215C24.0974 18.6619 24.1146 18.5949 24.1144 18.5269V13.7611C24.1144 13.4647 24.2778 13.1941 24.5368 13.0541L27.4616 11.4837C27.5227 11.4511 27.5912 11.4348 27.6605 11.4366C27.7297 11.4383 27.7974 11.4579 27.8568 11.4934C27.9162 11.529 27.9654 11.5794 27.9996 11.6396C28.0338 11.6999 28.0518 11.7679 28.0519 11.8372V20.6234C28.0519 20.9081 27.9003 21.1717 27.6553 21.3152L18.5156 26.6726C18.3896 26.7463 18.2459 26.7843 18.1 26.7824C17.954 26.7806 17.8113 26.739 17.6873 26.6621L10.7421 22.3675C10.6839 22.3315 10.6358 22.2812 10.6026 22.2214C10.5693 22.1615 10.5518 22.0942 10.5519 22.0257V17.7977C10.5519 17.6636 10.6184 17.5387 10.7304 17.4641L15.4438 14.3211C15.5538 14.2479 15.644 14.1487 15.7065 14.0323C15.769 13.9159 15.8018 13.7858 15.8019 13.6537V8.53205C15.8019 8.50373 15.7943 8.47592 15.78 8.45147C15.7657 8.42703 15.7452 8.40683 15.7205 8.39294C15.6958 8.37905 15.6678 8.37197 15.6395 8.37243C15.6112 8.37289 15.5835 8.38087 15.5593 8.39555L10.3793 11.5036C10.2551 11.5781 10.1131 11.6177 9.96835 11.6181C9.82355 11.6185 9.68133 11.5797 9.55677 11.5059L4.30444 8.39322C4.28007 8.37887 4.25234 8.3712 4.22406 8.37097C4.19577 8.37075 4.16793 8.37797 4.14333 8.39193C4.11873 8.40589 4.09824 8.42608 4.08392 8.45047C4.0696 8.47487 4.06196 8.5026 4.06177 8.53089V17.7861C4.06166 17.8569 4.04279 17.9265 4.00708 17.9877C3.97137 18.0489 3.9201 18.0995 3.85847 18.1345C3.79685 18.1694 3.72707 18.1874 3.65622 18.1867C3.58537 18.186 3.51598 18.1665 3.45511 18.1302L0.635274 16.4386C0.273608 16.2216 0.0519409 15.8296 0.0519409 15.4072V1.94155C0.0519409 1.63355 0.385608 1.43989 0.652774 1.59389Z" fill="#0073E6"/>
</svg>
