<svg width="52" height="42" viewBox="0 0 52 42" fill="none" xmlns="http://www.w3.org/2000/svg">
<g clip-path="url(#clip0_1_308)">
<path d="M24.5131 41.8014C36.0574 41.8014 45.4143 32.4433 45.4143 20.9001C45.4143 9.35919 36.0563 0 24.5131 0C12.9699 0 3.61297 9.35806 3.61297 20.9012C3.61297 32.4433 12.9699 41.8014 24.5131 41.8014Z" fill="#0B3D91"/>
<path d="M23.2792 4.2488C23.3414 4.2488 23.401 4.22411 23.4449 4.18015C23.4889 4.13619 23.5136 4.07656 23.5136 4.0144C23.5136 3.95223 23.4889 3.89261 23.4449 3.84865C23.401 3.80469 23.3414 3.77999 23.2792 3.77999C23.217 3.77999 23.1574 3.80469 23.1134 3.84865C23.0695 3.89261 23.0448 3.95223 23.0448 4.0144C23.0448 4.07656 23.0695 4.13619 23.1134 4.18015C23.1574 4.22411 23.217 4.2488 23.2792 4.2488ZM25.6857 4.56096C25.7477 4.56096 25.8072 4.53633 25.851 4.49247C25.8949 4.44862 25.9195 4.38914 25.9195 4.32713C25.9195 4.26511 25.8949 4.20563 25.851 4.16178C25.8072 4.11792 25.7477 4.09329 25.6857 4.09329C25.6237 4.09329 25.5642 4.11792 25.5203 4.16178C25.4765 4.20563 25.4518 4.26511 25.4518 4.32713C25.4518 4.38914 25.4765 4.44862 25.5203 4.49247C25.5642 4.53633 25.6237 4.56096 25.6857 4.56096ZM28.8413 8.80977C28.9035 8.80977 28.9631 8.78508 29.0071 8.74112C29.0511 8.69716 29.0758 8.63754 29.0758 8.57537C29.0758 8.5132 29.0511 8.45358 29.0071 8.40962C28.9631 8.36566 28.9035 8.34096 28.8413 8.34096C28.7792 8.34096 28.7196 8.36566 28.6756 8.40962C28.6316 8.45358 28.6069 8.5132 28.6069 8.57537C28.6069 8.63754 28.6316 8.69716 28.6756 8.74112C28.7196 8.78508 28.7792 8.80977 28.8413 8.80977ZM11.5328 30.6793C11.595 30.6793 11.6546 30.6546 11.6986 30.6106C11.7425 30.5667 11.7672 30.5071 11.7672 30.4449C11.7672 30.3827 11.7425 30.3231 11.6986 30.2791C11.6546 30.2352 11.595 30.2105 11.5328 30.2105C11.4706 30.2105 11.411 30.2352 11.3671 30.2791C11.3231 30.3231 11.2984 30.3827 11.2984 30.4449C11.2984 30.5071 11.3231 30.5667 11.3671 30.6106C11.411 30.6546 11.4706 30.6793 11.5328 30.6793ZM12.1412 32.5534C12.2034 32.5534 12.263 32.5287 12.307 32.4847C12.351 32.4408 12.3756 32.3812 12.3756 32.319C12.3756 32.2568 12.351 32.1972 12.307 32.1532C12.263 32.1093 12.2034 32.0846 12.1412 32.0846C12.0791 32.0846 12.0195 32.1093 11.9755 32.1532C11.9315 32.1972 11.9068 32.2568 11.9068 32.319C11.9068 32.3812 11.9315 32.4408 11.9755 32.4847C12.0195 32.5287 12.0791 32.5534 12.1412 32.5534ZM9.23643 30.9018C9.25954 30.9018 9.28241 30.8972 9.30376 30.8884C9.32511 30.8795 9.3445 30.8666 9.36084 30.8502C9.37718 30.8339 9.39014 30.8145 9.39898 30.7932C9.40783 30.7718 9.41238 30.7489 9.41238 30.7258C9.41238 30.7027 9.40783 30.6798 9.39898 30.6585C9.39014 30.6372 9.37718 30.6178 9.36084 30.6014C9.3445 30.5851 9.32511 30.5721 9.30376 30.5633C9.28241 30.5544 9.25954 30.5499 9.23643 30.5499C9.18977 30.5499 9.14501 30.5684 9.11202 30.6014C9.07902 30.6344 9.06048 30.6792 9.06048 30.7258C9.06048 30.7725 9.07902 30.8172 9.11202 30.8502C9.14501 30.8832 9.18977 30.9018 9.23643 30.9018ZM18.7659 34.5842C18.8126 34.5842 18.8573 34.5656 18.8903 34.5326C18.9233 34.4996 18.9418 34.4549 18.9418 34.4082C18.9418 34.3615 18.9233 34.3168 18.8903 34.2838C18.8573 34.2508 18.8126 34.2323 18.7659 34.2323C18.7192 34.2323 18.6745 34.2508 18.6415 34.2838C18.6085 34.3168 18.5899 34.3615 18.5899 34.4082C18.5899 34.4549 18.6085 34.4996 18.6415 34.5326C18.6745 34.5656 18.7192 34.5842 18.7659 34.5842ZM33.7111 31.4796C33.7577 31.4796 33.8025 31.461 33.8355 31.428C33.8685 31.395 33.887 31.3503 33.887 31.3036C33.887 31.2569 33.8685 31.2122 33.8355 31.1792C33.8025 31.1462 33.7577 31.1277 33.7111 31.1277C33.6644 31.1277 33.6197 31.1462 33.5867 31.1792C33.5537 31.2122 33.5351 31.2569 33.5351 31.3036C33.5351 31.3503 33.5537 31.395 33.5867 31.428C33.6197 31.461 33.6644 31.4796 33.7111 31.4796ZM38.053 26.7619C38.0996 26.7619 38.1444 26.7434 38.1774 26.7104C38.2104 26.6774 38.2289 26.6327 38.2289 26.586C38.2289 26.5393 38.2104 26.4946 38.1774 26.4616C38.1444 26.4286 38.0996 26.41 38.053 26.41C38.0063 26.41 37.9615 26.4286 37.9286 26.4616C37.8956 26.4946 37.877 26.5393 37.877 26.586C37.877 26.6327 37.8956 26.6774 37.9286 26.7104C37.9615 26.7434 38.0063 26.7619 38.053 26.7619ZM16.7658 10.122C16.8124 10.122 16.8572 10.1035 16.8902 10.0705C16.9232 10.0375 16.9417 9.99271 16.9417 9.94604C16.9417 9.89938 16.9232 9.85463 16.8902 9.82163C16.8572 9.78864 16.8124 9.7701 16.7658 9.7701C16.7191 9.7701 16.6744 9.78864 16.6414 9.82163C16.6084 9.85463 16.5898 9.89938 16.5898 9.94604C16.5898 9.99271 16.6084 10.0375 16.6414 10.0705C16.6744 10.1035 16.7191 10.122 16.7658 10.122ZM21.5447 6.61102C21.5914 6.61102 21.6361 6.59248 21.6691 6.55948C21.7021 6.52649 21.7206 6.48174 21.7206 6.43507C21.7206 6.38841 21.7021 6.34366 21.6691 6.31066C21.6361 6.27766 21.5914 6.25913 21.5447 6.25913C21.498 6.25913 21.4533 6.27766 21.4203 6.31066C21.3873 6.34366 21.3688 6.38841 21.3688 6.43507C21.3688 6.48174 21.3873 6.52649 21.4203 6.55948C21.4533 6.59248 21.498 6.61102 21.5447 6.61102ZM21.0271 6.26707C21.0737 6.26707 21.1185 6.24853 21.1515 6.21554C21.1845 6.18254 21.203 6.13779 21.203 6.09113C21.203 6.04446 21.1845 5.99971 21.1515 5.96671C21.1185 5.93372 21.0737 5.91518 21.0271 5.91518C20.9804 5.91518 20.9357 5.93372 20.9027 5.96671C20.8697 5.99971 20.8511 6.04446 20.8511 6.09113C20.8511 6.13779 20.8697 6.18254 20.9027 6.21554C20.9357 6.24853 20.9804 6.26707 21.0271 6.26707ZM20.5571 5.92313C20.5813 5.92508 20.6057 5.92199 20.6287 5.91406C20.6516 5.90613 20.6727 5.89353 20.6906 5.87706C20.7084 5.86058 20.7227 5.84058 20.7324 5.81833C20.7422 5.79607 20.7472 5.77204 20.7472 5.74775C20.7472 5.72345 20.7422 5.69942 20.7324 5.67716C20.7227 5.65491 20.7084 5.63491 20.6906 5.61844C20.6727 5.60196 20.6516 5.58936 20.6287 5.58143C20.6057 5.57351 20.5813 5.57042 20.5571 5.57237C20.5105 5.57237 20.4657 5.59091 20.4327 5.6239C20.3997 5.6569 20.3812 5.70165 20.3812 5.74831C20.3812 5.79498 20.3997 5.83973 20.4327 5.87273C20.4657 5.90572 20.5105 5.92313 20.5571 5.92313ZM17.515 11.0278C17.5392 11.0298 17.5635 11.0267 17.5865 11.0188C17.6095 11.0108 17.6306 10.9982 17.6484 10.9818C17.6663 10.9653 17.6805 10.9453 17.6903 10.923C17.7 10.9008 17.705 10.8767 17.705 10.8525C17.705 10.8282 17.7 10.8041 17.6903 10.7819C17.6805 10.7596 17.6663 10.7396 17.6484 10.7231C17.6306 10.7067 17.6095 10.6941 17.5865 10.6861C17.5635 10.6782 17.5392 10.6751 17.515 10.6771C17.4683 10.6771 17.4236 10.6956 17.3906 10.7286C17.3576 10.7616 17.339 10.8064 17.339 10.853C17.339 10.8997 17.3576 10.9444 17.3906 10.9774C17.4236 11.0104 17.4683 11.0278 17.515 11.0278ZM24.5562 1.8934C24.6029 1.8934 24.6476 1.87486 24.6806 1.84186C24.7136 1.80887 24.7322 1.76411 24.7322 1.71745C24.7322 1.67079 24.7136 1.62603 24.6806 1.59304C24.6476 1.56004 24.6029 1.5415 24.5562 1.5415C24.5095 1.5415 24.4648 1.56004 24.4318 1.59304C24.3988 1.62603 24.3803 1.67079 24.3803 1.71745C24.3803 1.76411 24.3988 1.80887 24.4318 1.84186C24.4648 1.87486 24.5095 1.8934 24.5562 1.8934ZM25.7129 6.95496C25.7596 6.95496 25.8043 6.93643 25.8373 6.90343C25.8703 6.87043 25.8889 6.82568 25.8889 6.77902C25.8889 6.73235 25.8703 6.6876 25.8373 6.6546C25.8043 6.62161 25.7596 6.60307 25.7129 6.60307C25.6663 6.60307 25.6215 6.62161 25.5885 6.6546C25.5555 6.6876 25.537 6.73235 25.537 6.77902C25.537 6.82568 25.5555 6.87043 25.5885 6.90343C25.6215 6.93643 25.6663 6.95496 25.7129 6.95496ZM23.8888 5.96626C23.9119 5.96626 23.9347 5.96171 23.9561 5.95287C23.9774 5.94403 23.9968 5.93107 24.0132 5.91473C24.0295 5.89839 24.0425 5.87899 24.0513 5.85765C24.0601 5.8363 24.0647 5.81342 24.0647 5.79031C24.0647 5.76721 24.0601 5.74433 24.0513 5.72298C24.0425 5.70164 24.0295 5.68224 24.0132 5.6659C23.9968 5.64956 23.9774 5.6366 23.9561 5.62776C23.9347 5.61892 23.9119 5.61437 23.8888 5.61437C23.8421 5.61437 23.7973 5.63291 23.7643 5.6659C23.7313 5.6989 23.7128 5.74365 23.7128 5.79031C23.7128 5.83698 23.7313 5.88173 23.7643 5.91473C23.7973 5.94772 23.8421 5.96626 23.8888 5.96626ZM20.7649 7.31026C20.8115 7.31026 20.8563 7.29172 20.8893 7.25873C20.9223 7.22573 20.9408 7.18098 20.9408 7.13432C20.9408 7.08765 20.9223 7.0429 20.8893 7.0099C20.8563 6.97691 20.8115 6.95837 20.7649 6.95837C20.7182 6.95837 20.6734 6.97691 20.6404 7.0099C20.6075 7.0429 20.5889 7.08765 20.5889 7.13432C20.5889 7.18098 20.6075 7.22573 20.6404 7.25873C20.6734 7.29172 20.7182 7.31026 20.7649 7.31026ZM34.542 36.1155C34.5887 36.1155 34.6334 36.0969 34.6664 36.0639C34.6994 36.0309 34.7179 35.9862 34.7179 35.9395C34.7179 35.8928 34.6994 35.8481 34.6664 35.8151C34.6334 35.7821 34.5887 35.7636 34.542 35.7636C34.4953 35.7636 34.4506 35.7821 34.4176 35.8151C34.3846 35.8481 34.366 35.8928 34.366 35.9395C34.366 35.9862 34.3846 36.0309 34.4176 36.0639C34.4506 36.0969 34.4953 36.1155 34.542 36.1155ZM11.2354 31.8076C11.2821 31.8076 11.3268 31.7891 11.3598 31.7561C11.3928 31.7231 11.4113 31.6783 11.4113 31.6317C11.4113 31.585 11.3928 31.5403 11.3598 31.5073C11.3268 31.4743 11.2821 31.4557 11.2354 31.4557C11.1887 31.4557 11.144 31.4743 11.111 31.5073C11.078 31.5403 11.0595 31.585 11.0595 31.6317C11.0595 31.6783 11.078 31.7231 11.111 31.7561C11.144 31.7891 11.1887 31.8076 11.2354 31.8076ZM23.4517 34.0722C23.4984 34.0722 23.5431 34.0537 23.5761 34.0207C23.6091 33.9877 23.6277 33.9429 23.6277 33.8963C23.6277 33.8496 23.6091 33.8048 23.5761 33.7719C23.5431 33.7389 23.4984 33.7203 23.4517 33.7203C23.4051 33.7203 23.3603 33.7389 23.3273 33.7719C23.2943 33.8048 23.2758 33.8496 23.2758 33.8963C23.2758 33.9429 23.2943 33.9877 23.3273 34.0207C23.3603 34.0537 23.4051 34.0722 23.4517 34.0722ZM14.8712 31.668C14.9179 31.668 14.9627 31.6495 14.9957 31.6165C15.0286 31.5835 15.0472 31.5387 15.0472 31.492C15.0472 31.4454 15.0286 31.4006 14.9957 31.3676C14.9627 31.3346 14.9179 31.3161 14.8712 31.3161C14.8246 31.3161 14.7798 31.3346 14.7468 31.3676C14.7138 31.4006 14.6953 31.4454 14.6953 31.492C14.6953 31.5387 14.7138 31.5835 14.7468 31.6165C14.7798 31.6495 14.8246 31.668 14.8712 31.668ZM16.3912 34.1471C16.4378 34.1471 16.4826 34.1286 16.5156 34.0956C16.5486 34.0626 16.5671 34.0178 16.5671 33.9712C16.5671 33.9245 16.5486 33.8798 16.5156 33.8468C16.4826 33.8138 16.4378 33.7952 16.3912 33.7952C16.3445 33.7952 16.2998 33.8138 16.2668 33.8468C16.2338 33.8798 16.2152 33.9245 16.2152 33.9712C16.2152 34.0178 16.2338 34.0626 16.2668 34.0956C16.2998 34.1286 16.3445 34.1471 16.3912 34.1471ZM27.5745 32.5852C27.6212 32.5852 27.666 32.5666 27.6989 32.5336C27.7319 32.5007 27.7505 32.4559 27.7505 32.4092C27.7505 32.3626 27.7319 32.3178 27.6989 32.2848C27.666 32.2518 27.6212 32.2333 27.5745 32.2333C27.5279 32.2333 27.4831 32.2518 27.4501 32.2848C27.4171 32.3178 27.3986 32.3626 27.3986 32.4092C27.3986 32.4559 27.4171 32.5007 27.4501 32.5336C27.4831 32.5666 27.5279 32.5852 27.5745 32.5852ZM33.7406 29.1049C33.7873 29.1049 33.832 29.0863 33.865 29.0533C33.898 29.0203 33.9165 28.9756 33.9165 28.9289C33.9165 28.8822 33.898 28.8375 33.865 28.8045C33.832 28.7715 33.7873 28.753 33.7406 28.753C33.6939 28.753 33.6492 28.7715 33.6162 28.8045C33.5832 28.8375 33.5646 28.8822 33.5646 28.9289C33.5646 28.9756 33.5832 29.0203 33.6162 29.0533C33.6492 29.0863 33.6939 29.1049 33.7406 29.1049ZM38.4162 31.2412C38.4629 31.2412 38.5076 31.2226 38.5406 31.1896C38.5736 31.1567 38.5922 31.1119 38.5922 31.0652C38.5922 31.0186 38.5736 30.9738 38.5406 30.9408C38.5076 30.9078 38.4629 30.8893 38.4162 30.8893C38.3695 30.8893 38.3248 30.9078 38.2918 30.9408C38.2588 30.9738 38.2403 31.0186 38.2403 31.0652C38.2403 31.1119 38.2588 31.1567 38.2918 31.1896C38.3248 31.2226 38.3695 31.2412 38.4162 31.2412ZM40.0099 32.2605C40.033 32.2605 40.0559 32.256 40.0773 32.2471C40.0986 32.2383 40.118 32.2253 40.1344 32.209C40.1507 32.1927 40.1637 32.1733 40.1725 32.1519C40.1813 32.1306 40.1859 32.1077 40.1859 32.0846C40.1859 32.0615 40.1813 32.0386 40.1725 32.0173C40.1637 31.9959 40.1507 31.9765 40.1344 31.9602C40.118 31.9438 40.0986 31.9309 40.0773 31.922C40.0559 31.9132 40.033 31.9086 40.0099 31.9086C39.9633 31.9086 39.9185 31.9272 39.8855 31.9602C39.8525 31.9932 39.834 32.0379 39.834 32.0846C39.834 32.1312 39.8525 32.176 39.8855 32.209C39.9185 32.242 39.9633 32.2605 40.0099 32.2605ZM40.2722 29.4795C40.2964 29.4814 40.3207 29.4783 40.3437 29.4704C40.3667 29.4625 40.3877 29.4499 40.4056 29.4334C40.4235 29.4169 40.4377 29.3969 40.4474 29.3747C40.4572 29.3524 40.4622 29.3284 40.4622 29.3041C40.4622 29.2798 40.4572 29.2557 40.4474 29.2335C40.4377 29.2112 40.4235 29.1912 40.4056 29.1748C40.3877 29.1583 40.3667 29.1457 40.3437 29.1378C40.3207 29.1298 40.2964 29.1267 40.2722 29.1287C40.2255 29.1287 40.1807 29.1472 40.1477 29.1802C40.1147 29.2132 40.0962 29.258 40.0962 29.3046C40.0962 29.3513 40.1147 29.3961 40.1477 29.4291C40.1807 29.462 40.2255 29.4806 40.2722 29.4806V29.4795ZM17.0269 25.5439C17.0735 25.5439 17.1183 25.5254 17.1513 25.4924C17.1843 25.4594 17.2028 25.4147 17.2028 25.368C17.2028 25.3213 17.1843 25.2766 17.1513 25.2436C17.1183 25.2106 17.0735 25.192 17.0269 25.192C16.9802 25.192 16.9354 25.2106 16.9024 25.2436C16.8695 25.2766 16.8509 25.3213 16.8509 25.368C16.8509 25.4147 16.8695 25.4594 16.9024 25.4924C16.9354 25.5254 16.9802 25.5439 17.0269 25.5439ZM17.0938 29.6327C17.156 29.6327 17.2156 29.608 17.2596 29.564C17.3035 29.5201 17.3282 29.4605 17.3282 29.3983C17.3282 29.3361 17.3035 29.2765 17.2596 29.2325C17.2156 29.1886 17.156 29.1639 17.0938 29.1639C17.0317 29.1639 16.972 29.1886 16.9281 29.2325C16.8841 29.2765 16.8594 29.3361 16.8594 29.3983C16.8594 29.4605 16.8841 29.5201 16.9281 29.564C16.972 29.608 17.0317 29.6327 17.0938 29.6327ZM18.5003 32.6011C18.5624 32.6011 18.6221 32.5764 18.666 32.5324C18.71 32.4885 18.7347 32.4288 18.7347 32.3667C18.7347 32.3045 18.71 32.2449 18.666 32.2009C18.6221 32.157 18.5624 32.1323 18.5003 32.1323C18.4381 32.1323 18.3785 32.157 18.3345 32.2009C18.2906 32.2449 18.2659 32.3045 18.2659 32.3667C18.2659 32.4288 18.2906 32.4885 18.3345 32.5324C18.3785 32.5764 18.4381 32.6011 18.5003 32.6011ZM35.3389 29.5078C35.401 29.5078 35.4606 29.4831 35.5046 29.4392C35.5486 29.3952 35.5733 29.3356 35.5733 29.2734C35.5733 29.2113 35.5486 29.1516 35.5046 29.1077C35.4606 29.0637 35.401 29.039 35.3389 29.039C35.2767 29.039 35.2171 29.0637 35.1731 29.1077C35.1292 29.1516 35.1045 29.2113 35.1045 29.2734C35.1045 29.3356 35.1292 29.3952 35.1731 29.4392C35.2171 29.4831 35.2767 29.5078 35.3389 29.5078ZM41.3993 29.1639C41.4615 29.1639 41.5211 29.1392 41.5651 29.0952C41.6091 29.0513 41.6338 28.9916 41.6338 28.9295C41.6338 28.8673 41.6091 28.8077 41.5651 28.7637C41.5211 28.7198 41.4615 28.6951 41.3993 28.6951C41.3372 28.6951 41.2776 28.7198 41.2336 28.7637C41.1896 28.8077 41.1649 28.8673 41.1649 28.9295C41.1649 28.9916 41.1896 29.0513 41.2336 29.0952C41.2776 29.1392 41.3372 29.1639 41.3993 29.1639ZM38.3992 27.8834C38.4614 27.8834 38.521 27.8588 38.5649 27.8148C38.6089 27.7708 38.6336 27.7112 38.6336 27.649C38.6336 27.5869 38.6089 27.5273 38.5649 27.4833C38.521 27.4393 38.4614 27.4146 38.3992 27.4146C38.337 27.4146 38.2774 27.4393 38.2334 27.4833C38.1895 27.5273 38.1648 27.5869 38.1648 27.649C38.1648 27.7112 38.1895 27.7708 38.2334 27.8148C38.2774 27.8588 38.337 27.8834 38.3992 27.8834ZM35.3389 28.0083C35.401 28.0083 35.4606 27.9836 35.5046 27.9397C35.5486 27.8957 35.5733 27.8361 35.5733 27.7739C35.5733 27.7117 35.5486 27.6521 35.5046 27.6082C35.4606 27.5642 35.401 27.5395 35.3389 27.5395C35.2767 27.5395 35.2171 27.5642 35.1731 27.6082C35.1292 27.6521 35.1045 27.7117 35.1045 27.7739C35.1045 27.8361 35.1292 27.8957 35.1731 27.9397C35.2171 27.9836 35.2767 28.0083 35.3389 28.0083ZM29.023 3.8674L29.6053 3.81064L29.0241 3.77886C29.0153 3.72371 28.9888 3.67291 28.9487 3.63404C28.9086 3.59517 28.857 3.57031 28.8016 3.56318L28.746 2.98426L28.7131 3.56886C28.6612 3.58048 28.6143 3.6079 28.5787 3.64735C28.5431 3.6868 28.5207 3.73632 28.5144 3.78907L27.9185 3.84356L28.5178 3.87534C28.5405 3.97637 28.6211 4.05469 28.7233 4.07286L28.7778 4.67107L28.8096 4.07399C28.8619 4.06532 28.9104 4.04091 28.9485 4.004C28.9866 3.96709 29.0126 3.91944 29.023 3.8674ZM19.1893 10.3547L19.7728 10.2979L19.1904 10.2662C19.1818 10.2111 19.1556 10.1603 19.1157 10.1214C19.0758 10.0826 19.0243 10.0577 18.9691 10.0505L18.9123 9.47156L18.8805 10.055C18.8283 10.0665 18.781 10.094 18.7452 10.1337C18.7094 10.1734 18.6868 10.2233 18.6808 10.2764L18.0848 10.3309L18.6853 10.3626C18.708 10.4637 18.7875 10.542 18.8896 10.5602L18.9441 11.1584L18.977 10.5613C19.0293 10.5527 19.0777 10.5283 19.1156 10.4914C19.1536 10.4544 19.1793 10.4067 19.1893 10.3547ZM40.9725 27.5043L41.556 27.4487L40.9737 27.4169C40.9651 27.3619 40.9388 27.3111 40.8989 27.2722C40.859 27.2333 40.8076 27.2084 40.7523 27.2012L40.6956 26.6223L40.6638 27.2058C40.6119 27.2176 40.5649 27.2453 40.5293 27.2849C40.4937 27.3245 40.4713 27.3742 40.4651 27.4271L39.8692 27.4805L40.4685 27.5134C40.4912 27.6133 40.5718 27.6927 40.674 27.7109L40.7285 28.3091L40.7603 27.712C40.8125 27.7033 40.8608 27.6789 40.8987 27.6419C40.9366 27.605 40.9624 27.5574 40.9725 27.5055V27.5043ZM17.221 36.4719L17.8033 36.4163L17.2221 36.3833C17.213 36.3284 17.1865 36.2779 17.1464 36.2392C17.1063 36.2006 17.0548 36.1759 16.9996 36.1688L16.944 35.5899L16.9111 36.1733C16.8591 36.185 16.812 36.2126 16.7764 36.2523C16.7408 36.292 16.7184 36.3417 16.7124 36.3947L16.1165 36.448L16.7158 36.481C16.7385 36.5809 16.8191 36.6603 16.9213 36.6785L16.9758 37.2767L17.0076 36.6796C17.0601 36.671 17.1088 36.6465 17.147 36.6093C17.1851 36.5722 17.211 36.5242 17.221 36.4719ZM39.1211 32.0982L39.7046 32.0415L39.1223 32.0097C39.1136 31.9546 39.0874 31.9038 39.0475 31.865C39.0076 31.8261 38.9562 31.8012 38.9009 31.794L38.8442 31.2151L38.8124 31.7985C38.7604 31.8104 38.7135 31.838 38.6779 31.8777C38.6423 31.9173 38.6199 31.967 38.6137 32.0199L38.0178 32.0732L38.6171 32.1062C38.6398 32.206 38.7204 32.2855 38.8226 32.3037L38.8771 32.9019L38.9089 32.3048C38.9611 32.2962 39.0095 32.2718 39.0475 32.2349C39.0854 32.1979 39.1111 32.1502 39.1211 32.0982Z" fill="white"/>
<path d="M29.4702 15.8942C27.041 16.8387 24.6697 17.6809 22.6708 18.3075C18.6047 19.5789 7.48492 23.0251 0.769457 27.367L1.33135 27.5861C5.42465 25.2738 8.0854 24.5474 10.6417 23.7437C13.4228 22.8696 22.4108 20.7651 26.4814 19.6197C28.0628 19.1727 29.6276 18.6691 31.1729 18.11C30.6301 17.3527 30.0622 16.6137 29.4702 15.8942ZM32.4386 19.9864C31.8506 20.3837 31.3579 20.7015 31.0129 20.9002C29.0128 22.0557 19.2642 28.7099 17.0473 30.2423C14.8292 31.7725 8.67454 37.5833 6.86286 39.2701L6.80043 39.9568C12.6418 34.7091 14.4751 33.4139 16.7976 31.6476C19.6717 29.4602 25.6176 25.4157 27.6381 24.1183C29.3941 22.993 31.14 21.8522 32.8756 20.6958C32.7319 20.4578 32.5862 20.222 32.4386 19.9864ZM41.5719 10.3411C38.725 12.0098 34.2389 14.0224 29.8879 15.7308C30.4783 16.453 31.0409 17.1975 31.5748 17.9624C34.9961 16.7024 38.7499 15.0111 41.7285 12.9644C40.3096 14.3084 35.6181 17.8149 32.7587 19.7684C32.9063 20.0091 33.0482 20.2486 33.1866 20.4881C37.5195 17.5878 40.4356 15.4538 42.1349 14.0269C44.4778 12.0586 49.8186 7.65314 51.8505 1.74817C48.2885 6.27736 44.0771 8.87228 41.5719 10.3411Z" fill="#FC3D21"/>
<path d="M21.8239 26.0752C21.3631 25.4963 20.7263 24.7187 20.2472 24.116C19.6226 23.3303 19.0307 22.5191 18.473 21.6845L17.9429 21.8173C18.5979 22.8389 19.3255 23.8606 20.1178 24.8572C20.6968 25.586 21.2235 26.174 21.4925 26.5372C21.5481 26.6121 21.6559 26.7756 21.8024 26.9935L22.3132 26.6462C22.1437 26.4618 21.9797 26.2713 21.8239 26.0752ZM25.1873 29.1287C24.8093 28.7712 23.891 28.1718 22.9352 27.275L22.2984 27.7143C22.9148 28.5839 23.7559 29.652 24.4143 29.963C25.4053 30.433 25.6721 29.5885 25.1873 29.1287ZM30.199 16.1167C24.7356 9.24002 18.061 5.46343 15.1834 7.74959C12.9472 9.52494 13.8666 14.7136 16.9463 20.1657L17.4196 20.0034C14.3094 14.6932 13.4591 9.75651 15.5671 8.08218C18.2165 5.97764 24.6118 9.769 29.9163 16.447C30.963 17.7581 31.9253 19.1343 32.7973 20.5675C35.928 25.7483 36.8883 30.4341 34.7259 32.3468C34.0641 32.9314 32.0413 33.1607 29.3919 31.9688C29.3556 32.0142 29.4146 32.1402 29.46 32.1709C31.7473 33.0903 33.9381 33.4422 35.0449 32.5625C37.7011 30.4512 35.6601 22.9933 30.1978 16.1167H30.199ZM6.76865 16.9328H10.2671L13.2037 21.9161V18.026C13.2037 17.5889 12.6498 17.0191 12.4545 16.9328H14.8758C14.7271 16.9714 14.2515 17.5503 14.2515 18.026V23.7436C14.2515 24.0955 14.7577 24.5791 15.0006 24.7664H11.6259L8.64275 19.7605V23.6971C8.64275 24.0876 9.0253 24.4622 9.42373 24.7823H6.84697C7.21362 24.6256 7.56438 24.1341 7.59616 23.7436C7.62794 23.3532 7.59616 18.3154 7.59616 18.0963C7.59616 17.6196 7.13643 17.2291 6.76865 16.9328Z" fill="white"/>
<path d="M38.7749 24.7664H43.4301C43.1724 24.704 42.883 24.3998 42.7263 23.9934C42.5708 23.587 40.103 16.9329 40.103 16.9329H38.3322C37.8316 17.2938 37.2936 17.6752 36.7192 18.0771L36.7135 18.1202C36.6363 18.589 35.2515 23.6052 35.1663 23.8526C35.0494 24.1966 34.4478 24.5791 34.206 24.7823H36.7135C36.4638 24.5008 36.2595 24.2272 36.3071 23.9151C36.3537 23.6029 36.4944 22.9786 36.4944 22.9786H39.0871C39.2051 23.2908 39.2914 23.5711 39.3368 23.8368C39.3924 24.158 39.0644 24.5156 38.7749 24.7664ZM36.7283 21.9785L37.6035 19.1203L38.759 21.9785H36.7305H36.7283ZM36.3344 17.2178L36.7203 16.9329H36.0415C36.1096 16.9953 36.2209 17.0941 36.3344 17.2178ZM18.5309 23.9151C18.5775 23.6029 18.7182 22.9786 18.7182 22.9786H21.312C21.4289 23.2908 21.5163 23.5711 21.5617 23.8368C21.6162 24.158 21.2893 24.5167 20.9998 24.7676H25.0977L25.3531 24.595C25.1739 24.4287 25.0362 24.2226 24.9512 23.9934C24.7957 23.587 22.3268 16.9329 22.3268 16.9329H18.2653C18.4605 17.1122 19.0236 17.5969 18.9373 18.1202C18.8612 18.589 17.4752 23.6052 17.3912 23.8526C17.2732 24.1966 16.6727 24.5791 16.4298 24.7823H18.9384C18.6876 24.5008 18.4844 24.2272 18.5309 23.9151ZM19.8272 19.1203L20.9839 21.9785H18.9521L19.8272 19.1203ZM32.6883 20.8218C31.9232 21.3304 31.1173 21.8628 30.2671 22.4178C30.6485 22.6029 30.9527 22.8344 30.9822 23.1341C31.0356 23.6983 29.9038 23.9696 28.8799 23.8526C28.6756 23.828 28.4751 23.7784 28.2829 23.7051L27.6381 24.1183C27.4168 24.2602 27.1489 24.4361 26.8412 24.6382V25.4464C27.0456 25.0479 27.4883 24.6915 27.8333 24.6733C27.982 24.6654 28.4974 25.1422 30.6224 25.0252C31.6531 24.9685 33.6441 23.8685 33.6135 22.6029C33.5942 21.8559 33.2048 21.2725 32.6883 20.8207V20.8218ZM26.8412 22.7743V23.5995L27.3963 23.2295C27.1984 23.0946 27.0127 22.9415 26.8412 22.7743ZM31.9607 20.3042C31.7689 20.1917 31.5719 20.0883 31.3704 19.9943C30.3715 19.5255 29.3249 19.4392 29.1058 18.807C28.9526 18.3609 29.3873 17.9477 30.4498 17.9636C31.5123 17.9795 32.4965 18.6117 32.7621 18.8376V16.8228C32.6826 16.9022 32.341 17.2938 32.0277 17.2291C31.4261 17.1043 30.4033 16.9408 29.2307 16.9476C27.8878 16.9556 26.7323 17.9942 26.6925 19.3064C26.6381 21.1419 28.1069 21.6425 28.9344 21.9309C29.0196 21.9604 29.1172 21.9922 29.2228 22.0262C30.0173 21.5097 30.6451 21.1124 31.0129 20.9002C31.2592 20.7583 31.5816 20.5539 31.9607 20.3042Z" fill="white"/>
</g>
<defs>
<clipPath id="clip0_1_308">
<rect width="51.0811" height="42" fill="white" transform="translate(0.769457)"/>
</clipPath>
</defs>
</svg>
