<svg width="81" height="52" viewBox="0 0 81 52" fill="none" xmlns="http://www.w3.org/2000/svg">
<g clip-path="url(#clip0_1_315)">
<g clip-path="url(#clip1_1_315)">
<mask id="mask0_1_315" style="mask-type:luminance" maskUnits="userSpaceOnUse" x="0" y="15" width="81" height="22">
<path d="M0.640015 15H80.64V36.62H0.640015V15Z" fill="white"/>
</mask>
<g mask="url(#mask0_1_315)">
<path d="M11.64 35.227C10.437 35.438 9.21201 35.502 7.94501 35.67L4.08101 24.353V36.156C2.87801 36.283 1.78101 36.452 0.640015 36.621V15H3.85001L8.24001 27.267V15H11.64V35.227ZM18.291 22.917C19.601 22.917 21.606 22.854 22.809 22.854V26.232C21.31 26.232 19.558 26.232 18.291 26.296V31.321C20.276 31.194 22.261 31.025 24.266 30.961V34.213L14.913 34.953V15H24.266V18.378H18.291V22.917ZM36.829 18.378H33.324V33.918C32.184 33.918 31.044 33.918 29.946 33.96V18.378H26.441V15H36.83L36.829 18.378ZM42.319 22.686H46.942V26.064H42.318V33.728H39.003V15H48.441V18.378H42.318L42.319 22.686ZM53.931 30.772C55.852 30.814 57.795 30.962 59.674 31.068V34.403C56.654 34.213 53.636 34.023 50.553 33.96V15H53.931V30.772ZM62.524 34.636C63.601 34.699 64.741 34.763 65.839 34.889V15H62.524V34.636ZM80.64 15L76.354 25.282L80.64 36.62C79.373 36.452 78.106 36.22 76.84 36.008L74.411 29.758L71.941 35.502C70.716 35.29 69.534 35.227 68.31 35.058L72.66 25.156L68.731 15H72.362L74.579 20.68L76.945 15H80.64Z" fill="#D81F26"/>
</g>
</g>
</g>
<defs>
<clipPath id="clip0_1_315">
<rect width="80" height="52" fill="white" transform="translate(0.640015)"/>
</clipPath>
<clipPath id="clip1_1_315">
<rect width="80" height="52" fill="white" transform="translate(0.640015)"/>
</clipPath>
</defs>
</svg>
