<svg width="90" height="16" viewBox="0 0 90 16" fill="none" xmlns="http://www.w3.org/2000/svg">
<g clip-path="url(#clip0_1_625)">
<g clip-path="url(#clip1_1_625)">
<mask id="mask0_1_625" style="mask-type:luminance" maskUnits="userSpaceOnUse" x="14" y="0" width="62" height="16">
<path d="M14.76 0.00927734H75.24V15.8141H14.76V0.00927734Z" fill="white"/>
</mask>
<g mask="url(#mask0_1_625)">
<path fill-rule="evenodd" clip-rule="evenodd" d="M29.5175 14.3023H31.5442V10.1325H33.9684C34.9336 10.1325 35.7469 9.95913 36.3847 9.6169C36.9972 9.30087 37.5012 8.80901 37.832 8.20449C38.1569 7.58703 38.3219 6.89806 38.312 6.20047C38.3217 5.50329 38.1567 4.81479 37.832 4.19773C37.5014 3.595 36.9987 3.10442 36.388 2.78856C35.7527 2.44243 34.944 2.26904 33.9846 2.26904H29.5175V14.3023ZM33.7917 8.44409H31.5422L31.5442 3.97825H33.7832C34.375 3.97825 34.8596 4.07436 35.224 4.26266C35.5643 4.43041 35.8412 4.70379 36.0132 5.04195C36.1855 5.4037 36.2713 5.80052 36.2639 6.2011C36.2704 6.60161 36.1846 6.99824 36.0132 7.36027C35.8425 7.70122 35.5673 7.97877 35.2279 8.15253C34.8667 8.34604 34.3834 8.44409 33.7917 8.44409Z" fill="white"/>
<path fill-rule="evenodd" clip-rule="evenodd" d="M40.5556 14.1667C41.0643 14.3933 41.6161 14.507 42.173 14.4998C42.692 14.4998 43.1435 14.4225 43.515 14.2725C43.8555 14.1396 44.1678 13.9435 44.4354 13.6946C44.5996 13.5394 44.7444 13.365 44.8667 13.1751V14.3024H46.799V8.10915C46.799 7.42795 46.679 6.86298 46.4424 6.42985C46.2275 6.0194 45.9091 5.67206 45.5189 5.42199C45.1528 5.19226 44.7488 5.02956 44.3257 4.94144C43.9355 4.85821 43.5379 4.81468 43.1389 4.81155C42.5954 4.8098 42.0549 4.89171 41.5364 5.05444C41.0324 5.21235 40.5676 5.47504 40.1723 5.82526C39.7574 6.20463 39.4446 6.68233 39.2629 7.2143L39.2292 7.30781L41.0869 7.7338L41.1148 7.66367C41.2396 7.35394 41.478 7.06689 41.806 6.81949C42.134 6.57205 42.5972 6.44608 43.1733 6.44608C43.7229 6.44608 44.1425 6.58246 44.4166 6.84935C44.6907 7.11625 44.8304 7.50197 44.8304 7.99618V8.03708C44.8304 8.21955 44.7654 8.34684 44.6355 8.42672C44.4907 8.51308 44.2503 8.57933 43.9255 8.62154C43.5851 8.66504 43.1343 8.71765 42.5842 8.77738C42.1492 8.83147 41.7174 8.90906 41.2909 9.00987C40.8839 9.1035 40.493 9.25667 40.1308 9.46444C39.7835 9.66286 39.4928 9.94677 39.2863 10.2892C39.0791 10.6333 38.9732 11.0788 38.9732 11.6139C38.9732 12.227 39.1168 12.7549 39.3993 13.1848C39.6838 13.6151 40.0848 13.9557 40.5556 14.1667ZM44.5764 9.97031C44.6642 9.94458 44.75 9.91224 44.833 9.87357L44.8343 10.9087C44.834 11.2494 44.7416 11.5838 44.5666 11.8763C44.3808 12.1876 44.1135 12.4424 43.7937 12.6133C43.4565 12.7997 43.0467 12.8945 42.5595 12.8945C42.0723 12.8945 41.6631 12.7789 41.3578 12.5698C41.0525 12.3607 40.9031 12.0562 40.9031 11.6386C40.9031 11.3438 40.983 11.1048 41.1402 10.9275C41.3176 10.7349 41.5412 10.5906 41.7897 10.508C42.0906 10.4035 42.4011 10.3291 42.7167 10.2859C42.8648 10.2697 43.0486 10.2463 43.2707 10.2158C43.4929 10.1853 43.719 10.1508 43.9476 10.1125C44.16 10.0784 44.37 10.0309 44.5764 9.97031Z" fill="white"/>
<path fill-rule="evenodd" clip-rule="evenodd" d="M48.3881 14.3024H50.3414V8.61564C50.3316 8.26081 50.4222 7.91047 50.6024 7.60471C50.7829 7.29896 51.0458 7.05021 51.3611 6.88697C51.697 6.71083 52.0718 6.62152 52.4509 6.62722C52.6333 6.62729 52.8157 6.63813 52.9965 6.65969L53.0175 6.48499C53.0144 6.48461 53.0109 6.48423 53.0078 6.48386L53.0219 4.92419L53.0279 4.80762C52.8759 4.79916 52.7427 4.79462 52.6324 4.79462C52.1003 4.78832 51.5792 4.94441 51.1382 5.24204C50.7597 5.49534 50.4629 5.85314 50.284 6.27199V4.92645H48.3881V14.3024Z" fill="white"/>
<path fill-rule="evenodd" clip-rule="evenodd" d="M56.0569 13.7307C56.5485 14.1917 57.211 14.4255 58.0264 14.4255C58.2464 14.4251 58.4657 14.4078 58.6829 14.3736C58.8885 14.3432 59.0909 14.2956 59.2883 14.2314L59.3488 14.2112V12.5378L59.2435 12.5585C59.1605 12.5754 58.854 12.6046 58.6895 12.6202L58.5895 12.63C58.0737 12.6832 57.7105 12.6014 57.5159 12.3832C57.3561 12.2059 57.2749 11.9143 57.2749 11.5163V6.54256H59.1677V4.92624H57.2749V2.73779H55.3123V4.92624H53.9711V6.54256H55.3123V11.8767C55.3123 12.6449 55.5652 13.2696 56.0569 13.7307Z" fill="white"/>
<path fill-rule="evenodd" clip-rule="evenodd" d="M60.9247 14.3022H62.8786V4.92627H60.9247V14.3022Z" fill="white"/>
<path fill-rule="evenodd" clip-rule="evenodd" d="M60.9454 3.78145H62.8579V1.86963H60.9454V3.78145Z" fill="white"/>
<path fill-rule="evenodd" clip-rule="evenodd" d="M66.0524 13.7626C66.6591 14.0997 67.4215 14.2704 68.3205 14.2704C68.8739 14.2791 69.4245 14.1912 69.9478 14.0107C70.3922 13.8548 70.7971 13.6034 71.1339 13.2743C71.4542 12.9536 71.6983 12.565 71.8484 12.1372C72.0086 11.6668 72.0872 11.1724 72.0809 10.6754V10.5877H70.2029V10.6754C70.213 11.0472 70.1434 11.4169 69.9996 11.7599C69.8783 12.0386 69.6724 12.2723 69.4111 12.4281C69.1513 12.582 68.8031 12.6606 68.3719 12.6606C67.8743 12.6606 67.4613 12.5535 67.1473 12.3463C66.8336 12.1391 66.5992 11.8216 66.44 11.3787C66.2808 10.9358 66.2009 10.3702 66.2009 9.69808V9.41041C66.2009 8.70581 66.2868 8.122 66.4478 7.69729C66.6089 7.27262 66.8474 6.95245 67.1564 6.74466C67.4657 6.53683 67.8495 6.43101 68.3042 6.43101C68.737 6.43101 69.0917 6.50437 69.3578 6.64789C69.6198 6.78937 69.8256 7.01528 69.9425 7.28885C70.0726 7.57975 70.1374 7.96162 70.1374 8.41619V8.50384H72.0822V8.41619C72.09 7.89732 72.0117 7.38073 71.8503 6.88752C71.7052 6.45504 71.4573 6.06418 71.128 5.74849C70.7899 5.43446 70.3878 5.19781 69.9491 5.05494C69.4277 4.89143 68.883 4.81312 68.3368 4.82311C67.4487 4.82311 66.692 4.99779 66.0768 5.34262C65.4617 5.68745 64.9888 6.22124 64.6823 6.90895C64.3759 7.59664 64.2198 8.48438 64.2198 9.54808C64.2198 10.6118 64.3705 11.4956 64.6745 12.1956C64.9785 12.8957 65.4457 13.4256 66.0524 13.7626Z" fill="white"/>
<path fill-rule="evenodd" clip-rule="evenodd" d="M73.3319 14.3024H75.2858V1.86523H73.3319V14.3024Z" fill="white"/>
<path d="M25.2966 0.00927734V10.5459H20.0283V5.27756H14.76V0.00927734L25.2966 0.00927734Z" fill="white"/>
<path d="M20.0283 10.5459H14.76V15.8135H20.0283V10.5459Z" fill="white"/>
</g>
</g>
</g>
<defs>
<clipPath id="clip0_1_625">
<rect width="90" height="16" fill="white"/>
</clipPath>
<clipPath id="clip1_1_625">
<rect width="60.48" height="16" fill="white" transform="translate(14.76)"/>
</clipPath>
</defs>
</svg>
