<svg width="37" height="37" viewBox="0 0 37 37" fill="none" xmlns="http://www.w3.org/2000/svg">
<g clip-path="url(#clip0_1_383)">
<mask id="mask0_1_383" style="mask-type:luminance" maskUnits="userSpaceOnUse" x="0" y="0" width="37" height="37">
<path d="M0.0519409 0.0830078H36.0519V36.083H0.0519409V0.0830078Z" fill="white"/>
</mask>
<g mask="url(#mask0_1_383)">
<path d="M18.0519 36.083C27.9931 36.083 36.0519 28.0241 36.0519 18.083C36.0519 8.14188 27.9931 0.0830078 18.0519 0.0830078C8.11082 0.0830078 0.0519409 8.14188 0.0519409 18.083C0.0519409 28.0241 8.11082 36.083 18.0519 36.083Z" fill="#F0F7FF"/>
<path d="M15.3711 16.5001L21.4269 19.9617L27.4828 16.5012C27.3236 16.2277 27.095 16.0011 26.8202 15.8442L22.3202 13.2725C22.0483 13.1172 21.7406 13.0355 21.4275 13.0355C21.1144 13.0355 20.8067 13.1172 20.5348 13.2725L16.0348 15.8431C15.7595 16.0002 15.5305 16.2261 15.3711 16.5001Z" fill="#99CCF3"/>
<path d="M15.127 17.4057V22.5166C15.127 22.8339 15.2108 23.1455 15.3701 23.4199C15.5293 23.6943 15.7583 23.9218 16.0337 24.0792L20.5337 26.651C20.8105 26.8085 21.1187 26.8872 21.427 26.8872V19.9617L15.3711 16.5012C15.2136 16.7712 15.127 17.0828 15.127 17.4068V17.4057Z" fill="#3399FF"/>
<path d="M22.3191 26.651C22.0473 26.8059 21.7398 26.8873 21.4269 26.8872V19.9617L27.4828 16.5012C27.6403 16.7712 27.7269 17.0828 27.7269 17.4068V22.5177C27.7269 22.835 27.643 23.1466 27.4838 23.421C27.3246 23.6954 27.0956 23.9229 26.8202 24.0803L22.3191 26.6521V26.651Z" fill="#007FFF"/>
<path d="M8.62106 20.5502L14.6769 24.0118L20.7328 20.5513C20.5736 20.2778 20.345 20.0512 20.0702 19.8943L15.5702 17.3225C15.2983 17.1672 14.9906 17.0856 14.6775 17.0856C14.3644 17.0856 14.0567 17.1672 13.7848 17.3225L9.28481 19.8932C9.00947 20.0503 8.7805 20.2762 8.62106 20.5502Z" fill="#99CCF3"/>
<path d="M8.37695 21.4558V26.5666C8.37697 26.8839 8.46085 27.1955 8.62008 27.47C8.77932 27.7444 9.00826 27.9718 9.2837 28.1293L13.7837 30.701C14.0605 30.8585 14.3687 30.9373 14.677 30.9373V24.0118L8.62108 20.5513C8.46358 20.8213 8.37695 21.1329 8.37695 21.4569V21.4558Z" fill="#3399FF"/>
<path d="M15.5691 30.701C15.2973 30.856 14.9898 30.9374 14.6769 30.9373V24.0118L20.7328 20.5513C20.8903 20.8213 20.9769 21.1329 20.9769 21.4569V26.5678C20.9769 26.885 20.893 27.1967 20.7338 27.4711C20.5746 27.7455 20.3456 27.9729 20.0702 28.1304L15.5691 30.701Z" fill="#007FFF"/>
<path d="M8.61544 12.449L14.6769 15.914L27.4839 8.40571C27.3248 8.13089 27.0958 7.90306 26.8202 7.74534L22.3314 5.18034C22.0565 5.02326 21.745 4.94149 21.4284 4.94327C21.1118 4.94504 20.8012 5.03031 20.5281 5.19046L9.26682 11.792C8.99568 11.9502 8.77185 12.1767 8.61544 12.449Z" fill="#99CCF3"/>
<path d="M8.37695 13.3445V18.4689C8.37706 18.7858 8.46085 19.0972 8.61988 19.3714C8.7789 19.6455 9.00751 19.8729 9.28258 20.0304L13.7736 22.5976C14.0487 22.7545 14.3603 22.836 14.677 22.8339V15.9118L8.61545 12.4479C8.45916 12.7204 8.37693 13.0292 8.37695 13.3434V13.3445Z" fill="#3399FF"/>
<path d="M15.5758 22.5864C15.3031 22.7464 14.9931 22.8318 14.6769 22.8339V15.9118L27.4839 8.40466C27.6414 8.67466 27.7269 8.98404 27.7269 9.30691V14.4313C27.727 14.7451 27.645 15.0534 27.4891 15.3258C27.3332 15.5981 27.1088 15.8249 26.8382 15.9838L15.5758 22.5864Z" fill="#007FFF"/>
</g>
</g>
<defs>
<clipPath id="clip0_1_383">
<rect width="36" height="36" fill="white" transform="translate(0.0519409 0.0830078)"/>
</clipPath>
</defs>
</svg>
