<svg width="33" height="33" viewBox="0 0 33 33" fill="none" xmlns="http://www.w3.org/2000/svg">
<g clip-path="url(#clip0_1_405)">
<g clip-path="url(#clip1_1_405)">
<mask id="mask0_1_405" style="mask-type:luminance" maskUnits="userSpaceOnUse" x="0" y="0" width="33" height="33">
<path d="M0.0519409 0.0830078H32.0519V32.083H0.0519409V0.0830078Z" fill="white"/>
</mask>
<g mask="url(#mask0_1_405)">
<path d="M16.0519 32.083C24.8885 32.083 32.0519 24.9196 32.0519 16.083C32.0519 7.24645 24.8885 0.0830078 16.0519 0.0830078C7.21538 0.0830078 0.0519409 7.24645 0.0519409 16.083C0.0519409 24.9196 7.21538 32.083 16.0519 32.083Z" fill="#F0F7FF"/>
<path d="M12.6689 10.204L18.0519 13.28L23.4349 10.204C23.2934 9.96092 23.0903 9.75947 22.8459 9.62004L18.8459 7.33404C18.6043 7.19601 18.3308 7.12341 18.0524 7.12341C17.7741 7.12341 17.5006 7.19601 17.2589 7.33404L13.2589 9.62004C13.0143 9.75941 12.8108 9.96086 12.6689 10.204Z" fill="#C2E0FF"/>
<path d="M12.4519 11.009V15.552C12.452 15.834 12.5265 16.111 12.668 16.3549C12.8096 16.5988 13.0131 16.801 13.2579 16.941L17.2579 19.227C17.5039 19.367 17.7779 19.437 18.0519 19.437V13.28L12.6689 10.204C12.5289 10.444 12.4519 10.721 12.4519 11.009Z" fill="#66B2FF"/>
<path d="M18.8449 19.227C18.6033 19.3647 18.33 19.4371 18.0519 19.437V13.28L23.4349 10.204C23.5749 10.444 23.6519 10.721 23.6519 11.009V15.552C23.6519 15.834 23.5774 16.111 23.4358 16.3549C23.2943 16.5988 23.0908 16.801 22.8459 16.941L18.8449 19.227Z" fill="#3399FF"/>
<path d="M6.26895 13.804L11.652 16.88L17.035 13.804C16.8934 13.561 16.6902 13.3595 16.446 13.22L12.446 10.934C12.2043 10.796 11.9308 10.7234 11.6525 10.7234C11.3741 10.7234 11.1006 10.796 10.859 10.934L6.85895 13.219C6.6142 13.3587 6.41067 13.5605 6.26895 13.804Z" fill="#C2E0FF"/>
<path d="M6.05194 14.609V19.152C6.05196 19.434 6.12651 19.711 6.26806 19.9549C6.4096 20.1988 6.6131 20.401 6.85794 20.541L10.8579 22.827C11.1039 22.967 11.3779 23.037 11.6519 23.037V16.88L6.26894 13.804C6.12894 14.044 6.05194 14.321 6.05194 14.609Z" fill="#66B2FF"/>
<path d="M12.4449 22.827C12.2034 22.9647 11.93 23.0371 11.6519 23.037V16.88L17.0349 13.804C17.1749 14.044 17.2519 14.321 17.2519 14.609V19.152C17.2519 19.434 17.1774 19.711 17.0358 19.9549C16.8943 20.1988 16.6908 20.401 16.4459 20.541L12.4449 22.827Z" fill="#3399FF"/>
<path d="M15.0689 15.804L20.4519 18.88L25.8349 15.804C25.6934 15.5609 25.4902 15.3595 25.2459 15.22L21.2459 12.934C21.0043 12.796 20.7308 12.7234 20.4524 12.7234C20.1741 12.7234 19.9006 12.796 19.6589 12.934L15.6589 15.219C15.4142 15.3587 15.2107 15.5605 15.0689 15.804Z" fill="#C2E0FF"/>
<path d="M14.8519 16.609V21.152C14.8519 21.434 14.9265 21.711 15.068 21.9549C15.2096 22.1988 15.4131 22.401 15.6579 22.541L19.6579 24.827C19.9039 24.967 20.1779 25.037 20.4519 25.037V18.88L15.0689 15.804C14.9267 16.0484 14.8519 16.3262 14.8519 16.609Z" fill="#66B2FF"/>
<path d="M21.2449 24.827C20.9989 24.967 20.7249 25.037 20.4519 25.037V18.88L25.8349 15.804C25.9749 16.044 26.0519 16.321 26.0519 16.609V21.152C26.0519 21.434 25.9774 21.711 25.8358 21.9549C25.6943 22.1988 25.4908 22.401 25.2459 22.541L21.2449 24.827Z" fill="#3399FF"/>
</g>
</g>
</g>
<defs>
<clipPath id="clip0_1_405">
<rect width="32" height="32" fill="white" transform="translate(0.0519409 0.0830078)"/>
</clipPath>
<clipPath id="clip1_1_405">
<rect width="32" height="32" fill="white" transform="translate(0.0519409 0.0830078)"/>
</clipPath>
</defs>
</svg>
