<svg width="33" height="33" viewBox="0 0 33 33" fill="none" xmlns="http://www.w3.org/2000/svg">
<g clip-path="url(#clip0_1_355)">
<g clip-path="url(#clip1_1_355)">
<g clip-path="url(#clip2_1_355)">
<mask id="mask0_1_355" style="mask-type:luminance" maskUnits="userSpaceOnUse" x="0" y="0" width="33" height="33">
<path d="M0.0519409 0.0830078H32.0519V32.083H0.0519409V0.0830078Z" fill="white"/>
</mask>
<g mask="url(#mask0_1_355)">
<path d="M16.0519 32.083C24.8885 32.083 32.0519 24.9196 32.0519 16.083C32.0519 7.24645 24.8885 0.0830078 16.0519 0.0830078C7.21538 0.0830078 0.0519409 7.24645 0.0519409 16.083C0.0519409 24.9196 7.21538 32.083 16.0519 32.083Z" fill="#F0F7FF"/>
<path d="M16.6689 9.40399L22.0519 12.48L27.4349 9.40399C27.2934 9.16091 27.0902 8.95946 26.8459 8.81999L22.8459 6.53399C22.6043 6.39596 22.3308 6.32336 22.0524 6.32336C21.7741 6.32336 21.5006 6.39596 21.2589 6.53399L17.2589 8.81999C17.0143 8.95936 16.8108 9.16081 16.6689 9.40399Z" fill="#5090D3"/>
<path d="M16.4519 10.2091V14.7521C16.452 15.0341 16.5265 15.3111 16.668 15.555C16.8096 15.7989 17.0131 16.0011 17.2579 16.1411L21.2579 18.4271C21.5039 18.5671 21.7779 18.6371 22.0519 18.6371V12.4801L16.6689 9.40405C16.5289 9.64405 16.4519 9.92105 16.4519 10.2091Z" fill="#1E4976"/>
<path d="M22.8449 18.4271C22.6033 18.5648 22.33 18.6372 22.0519 18.6371V12.4801L27.4349 9.40405C27.5749 9.64405 27.6519 9.92105 27.6519 10.2091V14.7521C27.6519 15.0341 27.5774 15.3111 27.4358 15.555C27.2943 15.7989 27.0908 16.0011 26.8459 16.1411L22.8449 18.4271Z" fill="#173A5E"/>
<path d="M4.66895 9.40399L10.0519 12.48L15.4349 9.40399C15.2934 9.16091 15.0902 8.95946 14.8459 8.81999L10.8459 6.53399C10.6043 6.39596 10.3308 6.32336 10.0524 6.32336C9.77413 6.32336 9.50062 6.39596 9.25894 6.53399L5.25894 8.81999C5.01432 8.95936 4.81081 9.16081 4.66895 9.40399Z" fill="#5090D3"/>
<path d="M4.45193 10.2091V14.7521C4.45195 15.0341 4.52651 15.3111 4.66805 15.555C4.80959 15.7989 5.01309 16.0011 5.25793 16.1411L9.25794 18.4271C9.50393 18.5671 9.77793 18.6371 10.0519 18.6371V12.4801L4.66893 9.40405C4.52893 9.64405 4.45193 9.92105 4.45193 10.2091Z" fill="#1E4976"/>
<path d="M10.8449 18.4271C10.6033 18.5648 10.33 18.6372 10.0519 18.6371V12.4801L15.4349 9.40405C15.5749 9.64405 15.6519 9.92105 15.6519 10.2091V14.7521C15.6519 15.0341 15.5774 15.3111 15.4358 15.555C15.2943 15.7989 15.0908 16.0011 14.8459 16.1411L10.8449 18.4271Z" fill="#173A5E"/>
<path d="M10.6689 13.004L16.0519 16.08L21.4349 13.004C21.2934 12.7609 21.0902 12.5594 20.8459 12.42L16.8459 10.134C16.6043 9.99594 16.3308 9.92334 16.0524 9.92334C15.7741 9.92334 15.5006 9.99594 15.2589 10.134L11.2589 12.419C11.0142 12.5586 10.8107 12.7604 10.6689 13.004Z" fill="#5090D3"/>
<path d="M10.4519 13.809V18.352C10.452 18.634 10.5265 18.911 10.668 19.155C10.8096 19.3989 11.0131 19.6011 11.2579 19.741L15.2579 22.027C15.5039 22.167 15.7779 22.237 16.0519 22.237V16.08L10.6689 13.004C10.5289 13.244 10.4519 13.521 10.4519 13.809Z" fill="#1E4976"/>
<path d="M16.8449 22.027C16.6033 22.1648 16.33 22.2371 16.0519 22.237V16.08L21.4349 13.004C21.5749 13.244 21.6519 13.521 21.6519 13.809V18.352C21.6519 18.634 21.5774 18.911 21.4358 19.155C21.2943 19.3989 21.0908 19.6011 20.8459 19.741L16.8449 22.027Z" fill="#173A5E"/>
<path d="M16.6689 16.6041L22.0519 19.6801L27.4349 16.6041C27.2934 16.361 27.0902 16.1595 26.8459 16.0201L22.8459 13.7341C22.6043 13.596 22.3308 13.5234 22.0524 13.5234C21.7741 13.5234 21.5006 13.596 21.2589 13.7341L17.2589 16.0201C17.0143 16.1594 16.8108 16.3609 16.6689 16.6041Z" fill="#5090D3"/>
<path d="M16.4519 17.409V21.952C16.452 22.234 16.5265 22.511 16.668 22.7549C16.8096 22.9989 17.0131 23.2011 17.2579 23.341L21.2579 25.627C21.5039 25.767 21.7779 25.837 22.0519 25.837V19.68L16.6689 16.604C16.5289 16.844 16.4519 17.121 16.4519 17.409Z" fill="#1E4976"/>
<path d="M22.8449 25.627C22.6033 25.7647 22.33 25.8371 22.0519 25.837V19.68L27.4349 16.604C27.5749 16.844 27.6519 17.121 27.6519 17.409V21.952C27.6519 22.234 27.5774 22.511 27.4358 22.7549C27.2943 22.9989 27.0908 23.2011 26.8459 23.341L22.8449 25.627Z" fill="#173A5E"/>
<path d="M4.66895 16.6041L10.0519 19.6801L15.4349 16.6041C15.2934 16.361 15.0902 16.1595 14.8459 16.0201L10.8459 13.7341C10.6043 13.596 10.3308 13.5234 10.0524 13.5234C9.77413 13.5234 9.50062 13.596 9.25894 13.7341L5.25894 16.0201C5.01432 16.1594 4.81081 16.3609 4.66895 16.6041Z" fill="#5090D3"/>
<path d="M4.45193 17.409V21.952C4.45195 22.234 4.52651 22.511 4.66805 22.7549C4.80959 22.9989 5.01309 23.2011 5.25793 23.341L9.25794 25.627C9.50393 25.767 9.77793 25.837 10.0519 25.837V19.68L4.66893 16.604C4.52893 16.844 4.45193 17.121 4.45193 17.409Z" fill="#1E4976"/>
<path d="M10.8449 25.627C10.6033 25.7647 10.33 25.8371 10.0519 25.837V19.68L15.4349 16.604C15.5749 16.844 15.6519 17.121 15.6519 17.409V21.952C15.6519 22.234 15.5774 22.511 15.4358 22.7549C15.2943 22.9989 15.0908 23.2011 14.8459 23.341L10.8449 25.627Z" fill="#173A5E"/>
</g>
</g>
</g>
</g>
<defs>
<clipPath id="clip0_1_355">
<rect width="32" height="32" fill="white" transform="translate(0.0519409 0.0830078)"/>
</clipPath>
<clipPath id="clip1_1_355">
<rect width="32" height="32" fill="white" transform="translate(0.0519409 0.0830078)"/>
</clipPath>
<clipPath id="clip2_1_355">
<rect width="32" height="32" fill="white" transform="translate(0.0519409 0.0830078)"/>
</clipPath>
</defs>
</svg>
