<svg width="33" height="33" viewBox="0 0 33 33" fill="none" xmlns="http://www.w3.org/2000/svg">
<g clip-path="url(#clip0_1_425)">
<g clip-path="url(#clip1_1_425)">
<mask id="mask0_1_425" style="mask-type:luminance" maskUnits="userSpaceOnUse" x="0" y="0" width="33" height="33">
<path d="M0.0519409 0.0830078H32.0519V32.083H0.0519409V0.0830078Z" fill="white"/>
</mask>
<g mask="url(#mask0_1_425)">
<path d="M16.0519 32.083C24.8885 32.083 32.0519 24.9196 32.0519 16.083C32.0519 7.24645 24.8885 0.0830078 16.0519 0.0830078C7.21538 0.0830078 0.0519409 7.24645 0.0519409 16.083C0.0519409 24.9196 7.21538 32.083 16.0519 32.083Z" fill="#F0F7FF"/>
<path d="M7.66895 13.804L13.0519 16.88L18.4349 13.804C18.2934 13.5609 18.0903 13.3594 17.8459 13.22L13.8459 10.934C13.6043 10.796 13.3308 10.7234 13.0524 10.7234C12.7741 10.7234 12.5006 10.796 12.2589 10.934L8.25894 13.219C8.0142 13.3587 7.81067 13.5605 7.66895 13.804Z" fill="#91B9E3"/>
<path d="M7.45193 14.609V19.152C7.45195 19.434 7.52651 19.711 7.66805 19.9549C7.80959 20.1988 8.01309 20.401 8.25794 20.541L12.2579 22.827C12.5039 22.967 12.7779 23.037 13.0519 23.037V16.88L7.66893 13.804C7.52893 14.044 7.45193 14.321 7.45193 14.609Z" fill="#5090D3"/>
<path d="M13.8449 22.827C13.6033 22.9647 13.33 23.0371 13.0519 23.037V16.88L18.4349 13.804C18.5749 14.044 18.6519 14.321 18.6519 14.609V19.152C18.6519 19.434 18.5774 19.711 18.4358 19.9549C18.2943 20.1988 18.0908 20.401 17.8459 20.541L13.8449 22.827Z" fill="#265D97"/>
<path d="M13.6689 17.4041L19.0519 20.4801L24.4349 17.4041C24.2934 17.161 24.0902 16.9596 23.8459 16.8201L19.8459 14.5341C19.6043 14.3961 19.3308 14.3235 19.0524 14.3235C18.7741 14.3235 18.5006 14.3961 18.2589 14.5341L14.2589 16.8191C14.0142 16.9588 13.8107 17.1606 13.6689 17.4041Z" fill="#91B9E3"/>
<path d="M13.4519 18.2091V22.7521C13.452 23.0341 13.5265 23.3111 13.668 23.555C13.8096 23.7989 14.0131 24.0011 14.2579 24.1411L18.2579 26.4271C18.5039 26.5671 18.7779 26.6371 19.0519 26.6371V20.4801L13.6689 17.4041C13.5289 17.6441 13.4519 17.9211 13.4519 18.2091Z" fill="#5090D3"/>
<path d="M19.8449 26.4271C19.6033 26.5648 19.33 26.6372 19.0519 26.6371V20.4801L24.4349 17.4041C24.5749 17.6441 24.6519 17.9211 24.6519 18.2091V22.7521C24.6519 23.0341 24.5774 23.3111 24.4358 23.555C24.2943 23.7989 24.0908 24.0011 23.8459 24.1411L19.8449 26.4271Z" fill="#265D97"/>
<path d="M10.4689 8.60406L15.8519 11.6801L21.2349 8.60406C21.0934 8.36098 20.8902 8.15953 20.6459 8.02006L16.6459 5.73406C16.4043 5.59604 16.1308 5.52344 15.8524 5.52344C15.5741 5.52344 15.3006 5.59604 15.0589 5.73406L11.0589 8.02006C10.8143 8.15943 10.6108 8.36088 10.4689 8.60406Z" fill="#91B9E3"/>
<path d="M10.252 9.409V13.952C10.252 14.234 10.3265 14.511 10.4681 14.7549C10.6096 14.9989 10.8131 15.2011 11.058 15.341L15.058 17.627C15.304 17.767 15.578 17.837 15.852 17.837V11.68L10.469 8.604C10.329 8.844 10.252 9.121 10.252 9.409Z" fill="#5090D3"/>
<path d="M16.6449 17.627C16.3989 17.767 16.1249 17.837 15.8519 17.837V11.68L21.2349 8.604C21.3749 8.844 21.4519 9.121 21.4519 9.409V13.952C21.4519 14.234 21.3774 14.511 21.2358 14.7549C21.0943 14.9989 20.8908 15.2011 20.6459 15.341L16.6449 17.627Z" fill="#265D97"/>
</g>
</g>
</g>
<defs>
<clipPath id="clip0_1_425">
<rect width="32" height="32" fill="white" transform="translate(0.0519409 0.0830078)"/>
</clipPath>
<clipPath id="clip1_1_425">
<rect width="32" height="32" fill="white" transform="translate(0.0519409 0.0830078)"/>
</clipPath>
</defs>
</svg>
