<svg width="100" height="52" viewBox="0 0 100 52" fill="none" xmlns="http://www.w3.org/2000/svg">
<g clip-path="url(#clip0_1_329)">
<g clip-path="url(#clip1_1_329)">
<mask id="mask0_1_329" style="mask-type:luminance" maskUnits="userSpaceOnUse" x="0" y="20" width="100" height="15">
<path d="M0 20H100V34.449H0V20Z" fill="white"/>
</mask>
<g mask="url(#mask0_1_329)">
<path d="M59.682 28.212C59.531 28.186 59.023 28.102 58.874 28.074C58.072 27.93 57.386 27.743 57.386 26.936C57.386 26.243 58.112 25.92 59.016 25.92C60.361 25.92 61.54 26.53 61.675 26.597L62.412 24.652C62.128 24.505 60.928 23.863 59.039 23.863C57.308 23.863 55.194 24.773 55.194 27.033C55.194 29.057 56.64 29.707 58.034 29.952C58.226 29.987 58.831 30.09 59.004 30.121C59.941 30.279 60.456 30.628 60.456 31.241C60.456 32.02 59.725 32.385 58.618 32.385C56.845 32.385 55.806 31.857 55.505 31.733L54.688 33.636C54.942 33.766 56.152 34.449 58.513 34.449C60.803 34.449 62.643 33.314 62.643 31.202C62.624 29.237 61.303 28.491 59.682 28.212ZM66.677 20.322L64.509 21.522V24.062H63.368V26.135H64.509V30.617C64.509 32.532 65.296 34.251 68.072 34.251H68.94V32.176H68.615C67.25 32.176 66.677 31.389 66.677 30.319V26.135H69.167V24.06H66.677V20.321M83.616 25.972C84.462 25.972 85.329 26.356 85.589 27.288L87.556 26.539C87.005 24.592 85.196 23.863 83.6 23.863C80.74 23.863 79.588 25.639 79.588 27.365V30.947C79.588 32.672 80.741 34.449 83.6 34.449C85.196 34.449 87.005 33.719 87.556 31.772L85.589 31.024C85.329 31.954 84.462 32.341 83.616 32.341C82.143 32.341 81.752 31.535 81.752 30.615V27.695C81.752 26.777 82.142 25.972 83.616 25.972ZM92.886 28.638L96.94 24.061H94.274L90.787 28.051V20.323H88.617V34.25H90.787V31.007L91.499 30.203L94.604 34.25H97.205L92.886 28.637V28.638Z" fill="#4E4E55"/>
<path d="M75.232 26.285H72.978C72.806 26.285 72.6409 26.3533 72.5191 26.4747C72.3972 26.5962 72.3285 26.761 72.328 26.933V29.379H70.104V26.933C70.104 26.5557 70.1784 26.1821 70.3228 25.8335C70.4673 25.4849 70.679 25.1682 70.9459 24.9015C71.2128 24.6348 71.5296 24.4233 71.8783 24.2791C72.227 24.1349 72.6007 24.0608 72.978 24.061H75.232V26.285ZM73.397 32.028H75.653C75.8252 32.0278 75.9903 31.9592 76.112 31.8373C76.2337 31.7154 76.302 31.5503 76.302 31.378V28.933H78.526V31.378C78.526 32.14 78.2233 32.8708 77.6845 33.4096C77.1457 33.9484 76.415 34.251 75.653 34.251H73.397V32.028ZM36.63 24.061H39.12V26.135H36.63V30.319C36.63 31.389 37.203 32.176 38.566 32.176H38.892V34.251H38.023C35.247 34.251 34.462 32.532 34.462 30.617V26.135H30.812V30.319C30.812 31.389 31.387 32.176 32.75 32.176H33.074V34.251H32.206C29.43 34.251 28.643 32.532 28.643 30.617V26.135H27.544V24.06H28.644V21.52L30.813 20.321V24.061H34.462V21.521L36.63 20.321V24.061ZM13.224 23.864C12.538 23.864 11.842 23.997 11.216 24.262V20.322H9.047V34.252H11.216V26.289C11.652 26.015 12.279 25.852 12.892 25.852C14.255 25.852 14.896 26.609 14.896 27.727V34.251H17.063V27.431C17.063 25.374 15.573 23.864 13.223 23.864M24.214 32.225C23.802 32.447 23.28 32.575 22.762 32.575C21.143 32.575 20.535 31.75 20.535 30.613V24.061H18.367V30.653C18.367 33.216 19.847 34.449 22.495 34.449C23.762 34.449 25.165 34.129 26.381 33.602V24.062H24.214V32.225ZM4.993 28.212C4.843 28.186 4.335 28.102 4.185 28.074C3.385 27.93 2.697 27.743 2.697 26.936C2.697 26.243 3.422 25.92 4.327 25.92C5.672 25.92 6.851 26.53 6.986 26.597L7.723 24.652C7.441 24.505 6.24 23.863 4.349 23.863C2.619 23.863 0.505 24.773 0.505 27.033C0.505 29.057 1.949 29.707 3.345 29.952C3.537 29.987 4.142 30.09 4.316 30.121C5.253 30.279 5.766 30.628 5.766 31.241C5.766 32.02 5.036 32.385 3.93 32.385C2.157 32.385 1.117 31.857 0.816 31.733L0 33.636C0.254 33.766 1.464 34.449 3.825 34.449C6.115 34.449 7.954 33.314 7.954 31.202C7.934 29.237 6.613 28.491 4.993 28.212ZM45.916 28.384H42.261V27.642C42.261 26.815 42.676 25.928 44.1 25.928C45.472 25.928 45.916 26.792 45.916 27.602V28.384ZM48.085 27.365C48.085 25.501 46.665 23.863 44.11 23.863C41.21 23.863 40.097 25.673 40.097 27.365V30.75C40.097 33.09 41.593 34.449 44.11 34.449C46.33 34.449 47.483 33.165 47.825 32.394L45.995 31.294C45.838 31.747 45.114 32.383 44.125 32.383C42.784 32.383 42.268 31.635 42.268 30.697L42.261 30.139H48.085V27.365ZM49.473 27.369V34.252H51.639V27.554C51.639 26.969 51.971 25.97 53.562 25.97C53.812 25.97 54.377 26.04 54.557 26.075V23.973C54.193 23.8988 53.8225 23.8619 53.451 23.863C50.696 23.863 49.473 25.592 49.473 27.369Z" fill="#E32124"/>
<path d="M99.124 24.64C99.124 24.559 99.074 24.483 98.937 24.483H98.801V24.827H98.937C99.084 24.827 99.124 24.761 99.124 24.655V24.64ZM99.104 25.367C99.0988 25.367 99.0938 25.3657 99.0894 25.363C99.085 25.3604 99.0814 25.3565 99.079 25.352L98.917 24.998H98.8V25.348C98.8 25.358 98.794 25.368 98.785 25.368H98.582C98.572 25.368 98.562 25.358 98.562 25.348V24.3H98.967C99.239 24.3 99.361 24.472 99.361 24.634V24.654C99.3623 24.7244 99.3428 24.7937 99.3049 24.8531C99.267 24.9126 99.2124 24.9595 99.148 24.988L99.351 25.346C99.356 25.356 99.351 25.366 99.341 25.366H99.103L99.104 25.367ZM98.937 24.033C98.477 24.033 98.144 24.393 98.144 24.853C98.144 25.282 98.482 25.646 98.937 25.646C99.397 25.646 99.726 25.282 99.726 24.852C99.726 24.397 99.366 24.033 98.937 24.033ZM98.937 25.883C98.351 25.883 97.876 25.439 97.876 24.853C97.8904 24.582 98.0082 24.3269 98.2051 24.1402C98.4021 23.9534 98.6631 23.8494 98.9345 23.8494C99.2058 23.8494 99.4669 23.9534 99.6638 24.1402C99.8607 24.3269 99.9785 24.582 99.993 24.853C99.993 25.438 99.523 25.883 98.937 25.883Z" fill="#4E4E55"/>
</g>
</g>
</g>
<defs>
<clipPath id="clip0_1_329">
<rect width="100" height="52" fill="white"/>
</clipPath>
<clipPath id="clip1_1_329">
<rect width="100" height="52" fill="white"/>
</clipPath>
</defs>
</svg>
