<svg width="101" height="52" viewBox="0 0 101 52" fill="none" xmlns="http://www.w3.org/2000/svg">
<g clip-path="url(#clip0_1_293)">
<g clip-path="url(#clip1_1_293)">
<g clip-path="url(#clip2_1_293)">
<path d="M15.656 12C7.374 12 0.660004 18.714 0.660004 26.996C0.660004 35.278 7.374 41.992 15.656 41.992C23.939 41.992 30.653 35.278 30.653 26.996C30.653 18.715 23.939 12.001 15.656 12.001V12ZM22.533 33.629C22.4691 33.7339 22.3852 33.8252 22.286 33.8975C22.1868 33.9699 22.0743 34.022 21.9549 34.0508C21.8355 34.0796 21.7116 34.0846 21.5903 34.0654C21.469 34.0462 21.3527 34.0032 21.248 33.939C17.727 31.788 13.294 31.301 8.074 32.493C7.83351 32.5448 7.58229 32.4998 7.37479 32.3676C7.16728 32.2354 7.02023 32.0268 6.9655 31.787C6.91077 31.5471 6.95277 31.2954 7.0824 31.0863C7.21203 30.8772 7.41884 30.7276 7.658 30.67C13.371 29.365 18.271 29.927 22.224 32.343C22.664 32.613 22.804 33.188 22.534 33.629H22.533ZM24.369 29.545C24.2068 29.8093 23.9464 29.9984 23.6449 30.0708C23.3434 30.1431 23.0255 30.0929 22.761 29.931C18.73 27.453 12.585 26.735 7.817 28.183C7.5958 28.2496 7.35985 28.2492 7.13888 28.1818C6.91791 28.1145 6.72182 27.9833 6.57531 27.8047C6.4288 27.6261 6.33843 27.4081 6.3156 27.1783C6.29277 26.9484 6.33849 26.7169 6.447 26.513C6.59322 26.24 6.84171 26.0361 7.138 25.946C12.584 24.293 19.355 25.094 23.984 27.938C24.534 28.277 24.707 28.996 24.369 29.545ZM24.526 25.293C19.693 22.423 11.719 22.159 7.105 23.559C6.92722 23.6182 6.73937 23.6412 6.55256 23.6266C6.36575 23.612 6.18375 23.5601 6.01732 23.474C5.85088 23.3879 5.70337 23.2694 5.5835 23.1254C5.46362 22.9813 5.37382 22.8148 5.31937 22.6355C5.26493 22.4562 5.24695 22.2678 5.2665 22.0814C5.28606 21.8951 5.34274 21.7145 5.43321 21.5504C5.52369 21.3863 5.64611 21.242 5.79327 21.126C5.94042 21.01 6.10932 20.9247 6.29 20.875C11.588 19.267 20.394 19.578 25.958 22.881C26.1165 22.9749 26.255 23.0991 26.3654 23.2466C26.4759 23.394 26.5562 23.5618 26.6017 23.7404C26.6472 23.9189 26.657 24.1046 26.6307 24.287C26.6043 24.4693 26.5422 24.6447 26.448 24.803C26.3541 24.9613 26.23 25.0995 26.0827 25.2098C25.9354 25.32 25.7678 25.4002 25.5895 25.4457C25.4112 25.4912 25.2257 25.5011 25.0436 25.4749C24.8614 25.4487 24.6862 25.3869 24.528 25.293H24.526ZM41.46 25.843C38.87 25.226 38.41 24.793 38.41 23.883C38.41 23.022 39.22 22.443 40.425 22.443C41.592 22.443 42.749 22.883 43.963 23.788C43.9811 23.8013 44.0016 23.8108 44.0235 23.8159C44.0453 23.8211 44.0679 23.8218 44.09 23.818C44.1125 23.815 44.1341 23.8074 44.1535 23.7957C44.173 23.784 44.1898 23.7685 44.203 23.75L45.467 21.968C45.4921 21.9327 45.5028 21.8891 45.4969 21.8461C45.4909 21.8032 45.4688 21.7642 45.435 21.737C43.99 20.577 42.365 20.014 40.462 20.014C37.667 20.014 35.713 21.692 35.713 24.092C35.713 26.667 37.398 27.578 40.31 28.282C42.787 28.852 43.206 29.331 43.206 30.185C43.206 31.132 42.36 31.722 41 31.722C39.488 31.722 38.254 31.212 36.875 30.018C36.8582 30.0031 36.8386 29.9918 36.8173 29.9847C36.7961 29.9775 36.7736 29.9747 36.7512 29.9764C36.7288 29.9781 36.707 29.9842 36.6871 29.9944C36.6671 30.0047 36.6494 30.0188 36.635 30.036L35.217 31.723C35.1882 31.7568 35.1738 31.8005 35.1767 31.8448C35.1797 31.889 35.1999 31.9304 35.233 31.96C36.838 33.392 38.811 34.148 40.943 34.148C43.954 34.148 45.901 32.502 45.901 29.954C45.906 27.804 44.619 26.613 41.465 25.846L41.46 25.843ZM52.716 23.29C51.411 23.29 50.34 23.804 49.456 24.858V23.672C49.456 23.6271 49.4382 23.584 49.4066 23.5521C49.3749 23.5203 49.3319 23.5023 49.287 23.502H46.968C46.9233 23.5025 46.8805 23.5207 46.8491 23.5525C46.8176 23.5843 46.8 23.6273 46.8 23.672V36.852C46.8 36.945 46.875 37.022 46.968 37.022H49.288C49.3326 37.0212 49.375 37.003 49.4063 36.9712C49.4375 36.9394 49.455 36.8966 49.455 36.852V32.692C50.34 33.682 51.411 34.168 52.716 34.168C55.143 34.168 57.6 32.3 57.6 28.729C57.603 25.158 55.146 23.289 52.718 23.289H52.716V23.29ZM54.903 28.73C54.903 30.547 53.783 31.816 52.179 31.816C50.594 31.816 49.399 30.489 49.399 28.729C49.399 26.969 50.594 25.642 52.179 25.642C53.757 25.642 54.903 26.941 54.903 28.73ZM63.894 23.29C60.769 23.29 58.321 25.696 58.321 28.768C58.321 31.808 60.753 34.188 63.857 34.188C66.992 34.188 69.447 31.789 69.447 28.729C69.447 25.679 67.008 23.29 63.894 23.29ZM63.894 31.834C62.232 31.834 60.979 30.498 60.979 28.728C60.979 26.95 62.189 25.66 63.857 25.66C65.529 25.66 66.79 26.995 66.79 28.767C66.79 30.545 65.572 31.834 63.894 31.834ZM76.12 23.502H73.568V20.894C73.568 20.8493 73.5504 20.8063 73.5189 20.7745C73.4875 20.7427 73.4447 20.7245 73.4 20.724H71.08C71.0349 20.724 70.9917 20.7419 70.9598 20.7738C70.9279 20.8057 70.91 20.8489 70.91 20.894V23.502H69.796C69.7513 23.5025 69.7085 23.5207 69.6771 23.5525C69.6456 23.5843 69.628 23.6273 69.628 23.672V25.664C69.628 25.758 69.703 25.834 69.796 25.834H70.91V30.991C70.91 33.074 71.947 34.13 73.994 34.13C74.824 34.13 75.514 33.958 76.164 33.59C76.1904 33.5755 76.2124 33.554 76.2276 33.5279C76.2427 33.5019 76.2505 33.4722 76.25 33.442V31.544C76.2496 31.5153 76.2419 31.4872 76.2277 31.4623C76.2135 31.4374 76.1932 31.4165 76.1688 31.4016C76.1443 31.3866 76.1165 31.3781 76.0879 31.3767C76.0592 31.3754 76.0307 31.3813 76.005 31.394C75.5848 31.6117 75.1182 31.7242 74.645 31.722C73.901 31.722 73.568 31.383 73.568 30.627V25.835H76.12C76.1647 25.8345 76.2075 25.8163 76.2389 25.7845C76.2704 25.7527 76.288 25.7097 76.288 25.665V23.673C76.2887 23.6507 76.2849 23.6286 76.2767 23.6079C76.2686 23.5871 76.2564 23.5682 76.2408 23.5524C76.2252 23.5365 76.2065 23.5239 76.1859 23.5154C76.1654 23.5069 76.1433 23.5027 76.121 23.503L76.12 23.502ZM85.009 23.512V23.192C85.009 22.249 85.371 21.829 86.18 21.829C86.664 21.829 87.052 21.925 87.487 22.07C87.5254 22.083 87.5672 22.0816 87.6047 22.0662C87.6422 22.0507 87.6729 22.0223 87.691 21.986C87.7032 21.9618 87.7094 21.9351 87.709 21.908V19.955C87.7096 19.9184 87.6982 19.8827 87.6765 19.8532C87.6548 19.8238 87.6241 19.8023 87.589 19.792C86.9647 19.6012 86.3148 19.5077 85.662 19.515C83.522 19.515 82.389 20.721 82.389 23.001V23.491H81.275C81.2527 23.491 81.2306 23.4954 81.2099 23.5039C81.1893 23.5125 81.1706 23.525 81.1548 23.5408C81.139 23.5566 81.1265 23.5753 81.1179 23.5959C81.1094 23.6166 81.105 23.6387 81.105 23.661V25.664C81.105 25.758 81.182 25.834 81.275 25.834H82.389V33.786C82.389 33.881 82.466 33.956 82.559 33.956H84.876C84.971 33.956 85.046 33.881 85.046 33.786V25.835H87.212L90.528 33.786C90.152 34.621 89.781 34.787 89.276 34.787C88.868 34.787 88.436 34.665 87.998 34.424C87.9563 34.4026 87.908 34.398 87.863 34.411C87.841 34.4185 87.8207 34.4304 87.8035 34.4461C87.7863 34.4617 87.7725 34.4808 87.763 34.502L86.977 36.227C86.9591 36.2661 86.9566 36.3105 86.9702 36.3514C86.9837 36.3922 87.0123 36.4264 87.05 36.447C87.87 36.891 88.61 37.081 89.525 37.081C91.237 37.081 92.185 36.282 93.017 34.137L97.039 23.744C97.0494 23.7184 97.0532 23.6906 97.05 23.6632C97.0469 23.6358 97.0369 23.6096 97.021 23.587C97.006 23.5641 96.9855 23.5454 96.9614 23.5325C96.9373 23.5195 96.9104 23.5129 96.883 23.513H94.47C94.4348 23.5131 94.4005 23.5241 94.3719 23.5445C94.3432 23.565 94.3216 23.5938 94.31 23.627L91.836 30.688L89.129 23.622C89.1169 23.5898 89.0953 23.5621 89.0671 23.5425C89.0389 23.5228 89.0054 23.5122 88.971 23.512H85.009ZM79.855 23.502H77.536C77.4909 23.502 77.4477 23.5199 77.4158 23.5518C77.3839 23.5837 77.366 23.6269 77.366 23.672V33.786C77.366 33.881 77.443 33.956 77.536 33.956H79.856C79.8783 33.956 79.9004 33.9516 79.9211 33.9431C79.9417 33.9345 79.9604 33.922 79.9762 33.9062C79.992 33.8904 80.0045 33.8717 80.0131 33.8511C80.0216 33.8304 80.026 33.8083 80.026 33.786V23.673C80.0258 23.6393 80.0156 23.6064 79.9967 23.5785C79.9779 23.5505 79.9512 23.5288 79.92 23.516C79.8994 23.5074 79.8773 23.502 79.855 23.502ZM78.709 18.896C78.4873 18.8904 78.2666 18.9293 78.0601 19.0103C77.8536 19.0912 77.6654 19.2127 77.5065 19.3675C77.3477 19.5224 77.2214 19.7074 77.1351 19.9117C77.0489 20.1161 77.0044 20.3357 77.0042 20.5575C77.0041 20.7793 77.0483 20.9989 77.1344 21.2034C77.2204 21.4078 77.3464 21.593 77.5051 21.748C77.6638 21.903 77.8518 22.0247 78.0583 22.106C78.2647 22.1872 78.4852 22.2263 78.707 22.221C79.1409 22.2106 79.5535 22.031 79.8568 21.7206C80.1601 21.4102 80.33 20.9935 80.3302 20.5595C80.3305 20.1255 80.1611 19.7086 79.8582 19.3978C79.5553 19.087 79.1429 18.9069 78.709 18.896ZM99.019 26.754C98.8046 26.7547 98.5922 26.7129 98.394 26.6311C98.1958 26.5493 98.0158 26.4291 97.8642 26.2774C97.7127 26.1256 97.5927 25.9455 97.5112 25.7472C97.4296 25.5489 97.3881 25.3364 97.389 25.122C97.389 24.228 98.112 23.482 99.029 23.482C99.945 23.482 100.66 24.219 100.66 25.113C100.66 26.008 99.935 26.754 99.019 26.754ZM99.029 23.644C98.192 23.644 97.56 24.309 97.56 25.122C97.56 25.936 98.189 26.591 99.02 26.591C99.856 26.591 100.488 25.927 100.488 25.113C100.488 24.3 99.859 23.645 99.028 23.645L99.029 23.644ZM99.39 25.281L99.852 25.927H99.462L99.046 25.334H98.69V25.927H98.364V24.214H99.127C99.527 24.214 99.787 24.418 99.787 24.761C99.79 25.041 99.627 25.213 99.392 25.281H99.39ZM99.115 24.508H98.69V25.05H99.115C99.325 25.05 99.453 24.946 99.453 24.779C99.453 24.602 99.326 24.509 99.115 24.509V24.508Z" fill="#1ED760"/>
</g>
</g>
</g>
<defs>
<clipPath id="clip0_1_293">
<rect width="100" height="52" fill="white" transform="translate(0.660004)"/>
</clipPath>
<clipPath id="clip1_1_293">
<rect width="100" height="52" fill="white" transform="translate(0.660004)"/>
</clipPath>
<clipPath id="clip2_1_293">
<rect width="100" height="52" fill="white" transform="translate(0.660004)"/>
</clipPath>
</defs>
</svg>
