<svg width="70" height="52" viewBox="0 0 70 52" fill="none" xmlns="http://www.w3.org/2000/svg">
<g clip-path="url(#clip0_1_323)">
<g clip-path="url(#clip1_1_323)">
<g clip-path="url(#clip2_1_323)">
<path fill-rule="evenodd" clip-rule="evenodd" d="M12.521 18.645L22.711 16L25.447 25.936L23.906 28.512L25.446 31.087L22.71 41L12.521 38.332L11.003 35.733L7.94497 35.756L0.469971 28.488L7.94497 21.221L11.004 21.244L12.521 18.645ZM11.257 21.658L19.053 19.703L14.568 27.247H5.59797L11.257 21.657V21.658ZM16.753 28.488L21.238 36.032L23.4 28.489L21.238 20.945L16.753 28.488ZM5.62197 29.708L11.257 35.296L19.077 37.251L14.591 29.707H5.62097L5.62197 29.708ZM45.847 23.337C44.49 23.337 43.57 23.912 42.88 24.97H42.834V23.613H40.442V33.594H42.88V27.936C42.88 26.58 43.731 25.636 44.904 25.636C46.008 25.636 46.836 26.304 46.836 27.476V33.617H49.274V27.085C49.297 24.901 47.917 23.337 45.847 23.337ZM34.738 31.639C35.98 31.639 36.739 30.719 36.739 29.385H36.762V23.613H39.2V33.617H36.854V32.444H36.785C36.118 33.364 35.336 33.894 33.933 33.894C31.703 33.894 30.46 32.467 30.46 30.282V23.612H32.899V29.822C32.899 30.995 33.61 31.639 34.738 31.639ZM50.585 23.613H53.023V33.594H50.585V23.613ZM53.023 20.508H50.585V22.508H53.023V20.508ZM66.845 23.613L65.396 28.12C65.074 29.04 64.821 30.305 64.821 30.305H64.752C64.752 30.305 64.43 29.04 64.108 28.12L62.475 23.613H59.853L62.544 30.719C63.119 32.237 63.304 32.881 63.304 33.433C63.304 34.261 62.866 34.79 61.831 34.79H60.888V36.883H62.453C64.476 36.883 65.189 36.078 65.948 33.87L69.468 23.636H66.845V23.613ZM57.577 25.383V30.673C57.577 31.41 57.991 31.663 58.566 31.639H59.186V33.571C59.186 33.571 58.911 33.618 57.853 33.618C56.565 33.618 55.139 33.111 55.139 31.225V25.361H53.759V23.613H55.139V20.508H57.577V23.636H59.141V25.384H57.577V25.383Z" fill="#1D1D1D"/>
</g>
</g>
</g>
<defs>
<clipPath id="clip0_1_323">
<rect width="69" height="52" fill="white" transform="translate(0.469971)"/>
</clipPath>
<clipPath id="clip1_1_323">
<rect width="69" height="52" fill="white" transform="translate(0.469971)"/>
</clipPath>
<clipPath id="clip2_1_323">
<rect width="69" height="52" fill="white" transform="translate(0.469971)"/>
</clipPath>
</defs>
</svg>
